<?xml version="1.0" encoding="utf-8"?>
<!-- Generator: Adobe Illustrator 26.0.1, SVG Export Plug-In . SVG Version: 6.00 Build 0)  -->
<svg version="1.1" id="Layer_1" xmlns="http://www.w3.org/2000/svg" xmlns:xlink="http://www.w3.org/1999/xlink" x="0px" y="0px"
	 viewBox="0 0 600 600" style="enable-background:new 0 0 600 600;" xml:space="preserve">
<style type="text/css">
	.st0{fill:#DCDCDC;}
	.st1{fill:#FDFDFD;}
	.st2{fill:#050506;}
	.st3{fill:#050607;}
	.st4{fill:#060708;}
	.st5{fill:#070809;}
	.st6{fill:#818282;}
	.st7{fill:#828282;}
	.st8{fill:#0C0D0D;}
	.st9{fill:#1D1E1E;}
	.st10{fill:#808181;}
	.st11{fill:#252626;}
	.st12{fill:#818181;}
	.st13{fill:#1A1B1B;}
	.st14{fill:#232323;}
	.st15{fill:#828383;}
	.st16{fill:#161717;}
	.st17{fill:#848484;}
	.st18{fill:#868686;}
	.st19{fill:#919191;}
	.st20{fill:#606060;}
	.st21{fill:#898989;}
	.st22{fill:#575656;}
	.st23{fill:#FBFBFB;}
	.st24{fill:#666565;}
</style>
<g>
	<path class="st0" d="M424.3,469.52c-1.85-0.7-2.72-1.11-3.64-1.36c-2.13-0.58-4.34-0.94-6.43-1.65c-5.56-1.86-5.54-1.92-5.54,4.06
		c0.01,6.45,0.4,12.93-0.09,19.34c-0.79,10.23-1.57,20.55-5.89,30.08c-2.63,5.82-7.64,8.53-13.8,8.82
		c-13.34,0.63-26.59-0.05-39.48-3.98c-3.01-0.92-5.92-2.18-9.78-3.62c3.84,7.61,2.6,15.07,3.08,22.39
		c0.78,11.75-7.4,19.87-16.79,23.3c-8.68,3.17-17.77,4.4-27.01,4.67c-17.67,0.51-35.13-1.27-52.46-4.6
		c-4.44-0.85-9.03-1.24-13.3-2.63c-8.89-2.9-12.23-9.91-12.58-18.74c-0.01-0.33,0-0.67-0.01-1c-0.04-7.56-0.09-7.25-7.37-8.45
		c-12.95-2.12-25.9-4.36-38.73-7.12c-8.83-1.9-16.93-6.04-24.39-11.1c-4.98-3.38-9.58-7.36-14.04-11.41
		c-1.53-1.39-2.67-3.69-3.07-5.75c-0.99-5.14-4.45-6.46-8.96-7.32c-5.6-1.07-11.33-2.2-16.54-4.4c-4.49-1.89-7.93-5.78-9.67-10.53
		c-1.58-4.32-4.25-7.05-8.29-9.38c-13.43-7.76-23.78-18.76-31.28-32.3c-6.67-12.05-11.89-24.76-15.16-38.15
		c-3.09-12.64-6.32-25.3-8.33-38.14c-2.09-13.34-2.54-26.9-0.98-40.42c0.61-5.26,1.71-10.5,1.8-15.76c0.04-2.34-1.36-5.15-2.97-7
		c-8.79-10.08-9.32-21.35-5.04-33.24c1.38-3.84,5.21-5.17,9-6.08c1.32-0.32,2.58-0.84,3.54-1.16c-2.51-7.67-5.72-14.66-6.94-21.98
		c-1.27-7.64-0.86-15.61-0.76-23.42c0.09-7.48,1.72-14.84,4.94-21.53c3.53-7.34,7.52-14.58,12.23-21.2
		c5.63-7.9,12.08-15.24,18.49-22.54c3.33-3.8,8-5.58,13.1-5.53c5.2,0.05,10.4,0.38,15.59,0.63c2.06,0.1,3.54-0.53,3.77-2.77
		c0.47-4.61,0.92-9.22,1.31-13.84c0.9-10.83,5.64-19.86,12.77-27.84c12.58-14.11,27.88-24.7,44.47-33.33
		c10.47-5.44,21.35-10.26,32.45-14.24c11.5-4.13,23.58-4.94,35.58-1.45c2.97,0.87,4.79,0.33,6.58-2.41
		c3.12-4.8,7.98-6.47,13.65-6.92c12.76-1.02,24.25,2.82,35.49,8.19c9.71,4.64,19.49,9.13,29.25,13.64c0.74,0.34,1.63,0.35,2.45,0.51
		c0.17-0.91,0.46-1.83,0.48-2.74c0.09-6.07-0.39-12.2,0.3-18.19c0.8-6.97,6.34-10.87,13.38-11.38c14.96-1.1,28.94,2.49,42.76,7.75
		c18.11,6.9,34.42,16.91,49.28,29.04c13.68,11.16,25.6,24.2,34.74,39.52c0.68,1.14,1.5,2.2,2.25,3.3c2.68,3.95,3.14,4.04,6.38,0.72
		c2.89-2.96,6.35-4.48,10.45-4.21c3.82,0.25,7.69,0.49,11.43,1.26c5.24,1.08,8.31,5.01,10.11,9.66c1.92,4.93,3.15,10.13,4.75,15.19
		c2.09,6.6,3.54,7.49,9.26,7.3c2.84-0.1,5.79,0.26,8.53,0.98c6.17,1.63,9.66,6.12,11.21,12.06c2.98,11.42,4.54,22.96,3.06,34.82
		c-0.2,1.63,0.86,4.28,2.18,5.09c11.43,7.04,15.85,18.3,18.17,30.5c1.61,8.43,1.93,17.09,2.84,25.65c0.24,2.31,0.46,4.62,0.79,6.91
		c0.33,2.27,1.57,3.58,3.89,4.4c7.83,2.75,12.29,7.95,13.48,16.66c2.02,14.73-0.68,29.03-2.43,43.47
		c-2.09,17.2-11.08,31.38-19.72,45.68c-5.84,9.66-12.67,18.74-18.11,28.6c-2.8,5.07-3.88,11.21-5.13,16.99
		c-1.99,9.17-3.28,18.48-5.22,27.66c-1.55,7.33-3.45,14.59-5.52,21.79c-1.31,4.57-4.94,7.04-9.19,8.94
		c-3.05,1.37-6.29,3.02-8.51,5.41c-4.44,4.79-10.2,7.37-15.53,10.71c-1.5,0.94-2.98,1.91-4.39,2.98c-2.85,2.16-4.24,4.9-3.86,8.65
		c0.28,2.74,0.11,5.56-0.14,8.31c-0.85,9.22-6.81,13.84-14.97,16.58c-10.19,3.42-20.54,3.77-31.15,2.79
		c-5.97-0.55-10.8-2.31-14.87-6.87c-2.87-3.22-4.21-6.8-4.26-10.85c-0.08-6.27-0.56-12.7,0.6-18.78c0.77-4.07,3.89-7.79,6.34-11.41
		C419.64,473.65,421.83,472.01,424.3,469.52z M101.83,143.6c-6.75-0.58-12.52-1.34-18.31-1.49c-6.57-0.17-12.04,2.61-16.31,7.59
		c-3.31,3.86-6.69,7.68-9.75,11.74c-9.79,13-19.71,25.97-22.06,42.82c-0.71,5.06-1.75,10.09-2.07,15.17
		c-0.24,3.78,0.17,7.66,0.76,11.43c1.27,8.15,3.99,15.88,8,23.06c2.31,4.14,2.1,4.93-2.63,5.54c-4.41,0.57-8.73,1.75-10.6,6.23
		c-2.85,6.81-2.65,13.99-0.26,20.8c1.27,3.64,4.02,6.76,6.1,10.11c1.7,2.74,4.59,4.68,2.79,9.02c-1.59,3.81-1.75,8.27-2.18,12.48
		c-0.37,3.63,0.17,7.37-0.4,10.95c-1.34,8.36,0.68,16.49,1.16,24.72c0.09,1.61-0.14,3.27,0.13,4.84c0.9,5.11,1.92,10.2,2.97,15.29
		c1.45,7.02,2.39,14.21,4.59,20.99c3.55,10.93,7.58,21.74,12.06,32.33c7.65,18.11,19.88,32.27,37.38,41.72
		c2.2,1.19,3.75,3.78,5.26,5.96c2.1,3.04,3.42,6.71,5.87,9.38c5.78,6.3,14.32,5.9,21.81,7.67c5.52,1.31,6.53,1.66,8.48,6.97
		c1.33,3.62,3.2,7.64,6.06,10.01c11.65,9.64,25.08,16.09,39.78,19.72c5.4,1.33,10.89,2.34,16.37,3.29
		c6.16,1.07,12.35,1.96,18.54,2.86c2.8,0.4,5.62,0.61,8.96,0.96c-3.17,6.42-2.09,12.12-0.36,17.55c2.51,7.89,9.79,9.3,16.62,10.81
		c4.02,0.89,8.22,0.97,12.3,1.64c5.2,0.85,10.36,2,15.55,2.89c2.32,0.4,4.68,0.54,7.03,0.69c3.49,0.22,6.99,0.51,10.48,0.48
		c7.46-0.07,14.93-0.11,22.36-0.61c3.69-0.25,7.3-1.6,10.97-2.31c7-1.34,12.96-4.58,17.59-9.96c3.46-4.02,4.12-8.99,3.86-14.16
		c-0.16-3.1-0.07-6.22,0.01-9.33c0.11-4.3-0.8-8.36-3.56-11.66c-3.15-3.78-7.02-6.73-11.8-8.35c-2.71-0.92-5.29-2.22-8-3.1
		c-2.72-0.88-2.1-2.37-1.04-4.06c3.73-5.98,7.46-11.97,11.25-17.9c0.4-0.62,1.26-0.95,1.91-1.42c0.38,0.62,1.01,1.21,1.09,1.87
		c0.47,3.83,0.81,7.67,1.2,11.51c0.89,8.82,4.35,16.2,12.57,20.32c9.11,4.56,19.27,5.14,29.11,6.71c4.34,0.69,8.88,0.17,13.32,0.1
		c7.67-0.12,13.18-4.06,15.51-11.26c0.88-2.72,1.54-5.54,1.92-8.37c1.14-8.52,2.46-17.04,2.97-25.61
		c0.32-5.33-0.63-10.74-1.13-16.11c-0.37-4,0.34-4.56,4.19-3.4c4.94,1.49,9.94,2.75,14.89,4.2c1.05,0.31,1.98,1.05,3.41,1.83
		c-1.85,1.66-3.36,2.79-4.6,4.16c-2.89,3.18-6.39,6.08-8.3,9.79c-3.92,7.6-4.05,16.05-2.64,24.32c1.17,6.86,5.07,12.02,12.14,13.94
		c2.27,0.62,4.74,0.69,7.12,0.7c6.9,0.02,14.02,0.92,20.65-0.47c8.82-1.85,18.89-3.38,21.22-14.87c0.69-3.38,1.33-7.11,0.57-10.34
		c-0.78-3.31-0.35-5.83,1.87-7.84c2.52-2.28,5.4-4.21,8.31-6.01c5.55-3.43,11.44-6.28,15.78-11.45c1.41-1.67,3.57-3.19,5.66-3.72
		c6.2-1.57,9.81-5.5,11.33-11.4c1.87-7.24,3.61-14.53,5.03-21.87c2.01-10.39,3.57-20.86,5.55-31.26c0.63-3.32,1.41-6.85,3.14-9.67
		c6.71-10.93,14.14-21.43,20.68-32.45c5.24-8.84,10.29-17.93,14.08-27.44c2.86-7.16,3.83-15.11,5.19-22.79
		c1.03-5.78,1.68-11.68,1.89-17.55c0.17-4.89-0.76-9.8-0.83-14.71c-0.14-9.52-3.69-14.49-12.46-17.34c-1.98-0.64-4.64-0.93-5-3.74
		c-0.4-3.22-0.63-6.46-0.78-9.7c-0.19-4.23,0.31-8.56-0.42-12.68c-1.35-7.57-2.95-15.16-5.24-22.49
		c-2.44-7.82-6.37-15.05-14.31-18.69c-3.27-1.5-3.71-3.56-3.31-6.6c0.5-3.76,1.1-7.56,1.07-11.33c-0.04-3.88-0.5-7.81-1.29-11.61
		c-1.12-5.37-2.26-10.83-4.24-15.92c-2.27-5.82-9.98-8.82-17.53-7.67c-4.83,0.74-7.99-1.48-9.41-6.43c-1.71-5.95-3.22-12-5.47-17.74
		c-1.05-2.68-3.31-5.21-5.65-6.98c-3.61-2.73-8.1-2.61-12.55-2.6c-4.65,0.01-8.45,1.32-11.32,4.97c-3.9,4.97-4.18,4.98-7.62-0.45
		c-0.12-0.19-0.19-0.4-0.3-0.6c-6.59-11.49-14.73-21.84-23.93-31.29c-9.52-9.77-19.95-18.55-31.92-25.23
		c-9.07-5.06-18.13-10.27-27.64-14.4c-13.41-5.84-27.31-10.2-42.34-9.4c-8.31,0.44-14.04,5.26-14.47,13.34
		c-0.31,5.88-0.88,11.83,1.38,17.57c0.36,0.93-0.26,2.24-0.43,3.38c-1.03-0.17-2.17-0.11-3.08-0.54
		c-11.55-5.38-22.95-11.08-34.63-16.17c-6.13-2.67-12.63-4.62-19.12-6.29c-3.54-0.91-7.41-0.71-11.13-0.71
		c-7.25-0.01-12.41,1.76-14.84,8.04c-1.25,3.24-2.97,3.04-5.67,2.01c-3.04-1.15-6.27-2.26-9.47-2.46c-4.6-0.28-9.26,0.26-13.89,0.48
		c-10.83,0.5-20.65,4.49-30.15,9.22c-9.3,4.63-18.44,9.6-27.43,14.81c-15.51,8.98-29.41,19.99-38.79,35.53
		c-5.21,8.63-6.38,18.57-6.15,28.64C102.92,139.38,102.09,141.99,101.83,143.6z M327.9,492.56c-3.13,4.75-6.05,9.01-8.7,13.43
		c-0.4,0.67,0.18,2.75,0.88,3.12c4.53,2.43,9.22,4.58,13.87,6.79c0.1,0.05,0.35-0.2,0.04-0.01
		C331.98,508.18,330.02,500.65,327.9,492.56z"/>
	<path class="st1" d="M101.83,143.6c0.26-1.62,1.09-4.22,1.03-6.81c-0.23-10.07,0.94-20.01,6.15-28.64
		c9.38-15.54,23.28-26.55,38.79-35.53c8.99-5.21,18.13-10.18,27.43-14.81c9.49-4.73,19.31-8.72,30.15-9.22
		c4.63-0.21,9.29-0.76,13.89-0.48c3.2,0.2,6.43,1.3,9.47,2.46c2.71,1.03,4.42,1.23,5.67-2.01c2.43-6.28,7.6-8.05,14.84-8.04
		c3.72,0.01,7.59-0.2,11.13,0.71c6.49,1.66,12.99,3.61,19.12,6.29c11.67,5.09,23.08,10.78,34.63,16.17
		c0.91,0.43,2.05,0.37,3.08,0.54c0.17-1.14,0.79-2.45,0.43-3.38c-2.26-5.74-1.69-11.69-1.38-17.57c0.43-8.08,6.16-12.89,14.47-13.34
		c15.02-0.8,28.92,3.56,42.34,9.4c9.5,4.14,18.57,9.34,27.64,14.4c11.97,6.68,22.4,15.46,31.92,25.23
		c9.2,9.45,17.34,19.8,23.93,31.29c0.11,0.19,0.18,0.41,0.3,0.6c3.44,5.43,3.72,5.42,7.62,0.45c2.86-3.65,6.67-4.96,11.32-4.97
		c4.45-0.01,8.93-0.13,12.55,2.6c2.34,1.77,4.6,4.3,5.65,6.98c2.26,5.74,3.76,11.79,5.47,17.74c1.43,4.95,4.58,7.17,9.41,6.43
		c7.55-1.15,15.26,1.85,17.53,7.67c1.98,5.09,3.12,10.54,4.24,15.92c0.8,3.8,1.26,7.73,1.29,11.61c0.03,3.77-0.57,7.57-1.07,11.33
		c-0.4,3.03,0.03,5.09,3.31,6.6c7.94,3.64,11.86,10.87,14.31,18.69c2.29,7.33,3.89,14.92,5.24,22.49c0.73,4.12,0.24,8.45,0.42,12.68
		c0.14,3.24,0.38,6.48,0.78,9.7c0.35,2.81,3.02,3.1,5,3.74c8.77,2.84,12.32,7.82,12.46,17.34c0.07,4.91,1,9.82,0.83,14.71
		c-0.21,5.87-0.86,11.76-1.89,17.55c-1.37,7.68-2.34,15.64-5.19,22.79c-3.8,9.51-8.84,18.61-14.08,27.44
		c-6.54,11.03-13.97,21.52-20.68,32.45c-1.73,2.81-2.51,6.35-3.14,9.67c-1.98,10.39-3.54,20.87-5.55,31.26
		c-1.42,7.34-3.16,14.63-5.03,21.87c-1.52,5.89-5.13,9.83-11.33,11.4c-2.09,0.53-4.25,2.04-5.66,3.72
		c-4.35,5.17-10.24,8.02-15.78,11.45c-2.9,1.79-5.79,3.72-8.31,6.01c-2.22,2.01-2.65,4.53-1.87,7.84c0.76,3.23,0.11,6.96-0.57,10.34
		c-2.33,11.49-12.4,13.01-21.22,14.87c-6.63,1.39-13.75,0.49-20.65,0.47c-2.38-0.01-4.85-0.08-7.12-0.7
		c-7.07-1.92-10.96-7.08-12.14-13.94c-1.41-8.26-1.28-16.71,2.64-24.32c1.91-3.71,5.41-6.62,8.3-9.79c1.24-1.37,2.75-2.5,4.6-4.16
		c-1.43-0.78-2.35-1.52-3.41-1.83c-4.95-1.46-9.96-2.71-14.89-4.2c-3.84-1.16-4.56-0.61-4.19,3.4c0.5,5.36,1.45,10.78,1.13,16.11
		c-0.51,8.57-1.84,17.09-2.97,25.61c-0.38,2.83-1.04,5.66-1.92,8.37c-2.33,7.19-7.84,11.14-15.51,11.26
		c-4.45,0.07-8.98,0.59-13.32-0.1c-9.84-1.57-20-2.15-29.11-6.71c-8.23-4.12-11.69-11.5-12.57-20.32c-0.39-3.84-0.73-7.69-1.2-11.51
		c-0.08-0.66-0.72-1.25-1.09-1.87c-0.65,0.47-1.51,0.8-1.91,1.42c-3.8,5.94-7.52,11.92-11.25,17.9c-1.05,1.69-1.68,3.18,1.04,4.06
		c2.72,0.88,5.3,2.19,8,3.1c4.78,1.62,8.64,4.57,11.8,8.35c2.76,3.3,3.67,7.36,3.56,11.66c-0.08,3.11-0.16,6.23-0.01,9.33
		c0.26,5.17-0.4,10.14-3.86,14.16c-4.62,5.38-10.58,8.62-17.59,9.96c-3.67,0.7-7.28,2.05-10.97,2.31
		c-7.43,0.51-14.91,0.54-22.36,0.61c-3.49,0.03-6.99-0.26-10.48-0.48c-2.35-0.15-4.71-0.3-7.03-0.69
		c-5.2-0.89-10.35-2.04-15.55-2.89c-4.08-0.67-8.28-0.75-12.3-1.64c-6.83-1.51-14.11-2.92-16.62-10.81
		c-1.73-5.43-2.81-11.13,0.36-17.55c-3.34-0.35-6.17-0.56-8.96-0.96c-6.19-0.89-12.38-1.78-18.54-2.86
		c-5.48-0.96-10.97-1.96-16.37-3.29c-14.7-3.62-28.13-10.07-39.78-19.72c-2.86-2.36-4.73-6.38-6.06-10.01
		c-1.95-5.31-2.96-5.67-8.48-6.97c-7.49-1.77-16.03-1.37-21.81-7.67c-2.45-2.67-3.77-6.34-5.87-9.38c-1.51-2.18-3.07-4.77-5.26-5.96
		c-17.51-9.45-29.73-23.62-37.38-41.72c-4.47-10.59-8.51-21.4-12.06-32.33c-2.2-6.78-3.14-13.97-4.59-20.99
		c-1.05-5.08-2.08-10.18-2.97-15.29c-0.28-1.57-0.04-3.23-0.13-4.84c-0.48-8.23-2.49-16.36-1.16-24.72
		c0.57-3.58,0.03-7.32,0.4-10.95c0.43-4.21,0.59-8.67,2.18-12.48c1.81-4.33-1.09-6.28-2.79-9.02c-2.08-3.35-4.83-6.47-6.1-10.11
		c-2.39-6.82-2.58-14,0.26-20.8c1.87-4.48,6.19-5.66,10.6-6.23c4.73-0.61,4.94-1.4,2.63-5.54c-4.01-7.19-6.73-14.92-8-23.06
		c-0.59-3.76-1-7.65-0.76-11.43c0.32-5.08,1.37-10.11,2.07-15.17c2.35-16.85,12.27-29.81,22.06-42.82
		c3.06-4.06,6.44-7.88,9.75-11.74c4.28-4.98,9.75-7.76,16.31-7.59C89.3,142.26,95.07,143.02,101.83,143.6z M63.33,253.28
		c0.36,0.51,0.73,1.03,1.09,1.54c2.9,3.6,5.79,7.19,8.69,10.79c0.7-0.96,0.84-1.45,0.68-1.81c-3.93-9.19-1.95-17.98,2.45-26.24
		c4.17-7.81,9.08-15.22,13.66-22.8c0.21,1.12,0.71,2.29,0.57,3.37c-1.25,9.3-2.43,18.63-4.01,27.88
		c-1.93,11.32-3.71,22.71-8.72,33.24c-0.99,2.07,0,3.48,1.75,4.48c1.13-0.86,2.07-1.58,3-2.29c0.23,2.46-2.28,5.5,1.62,7.25
		c1.62-1.89,3.05-4.04,4.94-5.66c7.64-6.55,13.59-14.15,16.9-23.82c7.12-20.82,8.4-42.1,5.69-63.76
		c-1.82-14.51-10.65-24.98-20.29-34.96c-3.83-5.54-4.7-5.71-9.13-0.99c-9.9,10.58-19.09,21.8-25.78,34.68
		c-6.85,13.19-10.29,27.17-3.74,41.61c2.47,5.44,6.13,10.34,9.25,15.48l0.02,0.03c0.44,0.65,0.88,1.31,1.32,1.96L63.33,253.28z
		 M83.7,292.87c-0.86-0.92-1.59-2.04-2.62-2.72c-3.04-2.01-6.26-3.74-9.29-5.76c-8.97-5.95-19.02-8.69-29.51-10.17
		c-0.55-0.08-1.16,0.22-2.62,0.53c1.93,1.9,3.36,3.3,4.78,4.7c3.2,5.17,7.86,8.09,13.71,9.75c9.88,2.81,20.29,3.92,29.52,8.91
		c0.17,0.09,0.55-0.2,1.27-0.48C87.06,295.94,85.38,294.4,83.7,292.87z M399.92,75.43l-0.03-0.02c-0.55-0.63-1.01-1.39-1.68-1.87
		c-15.03-10.87-31.16-19.62-49.01-24.9c-4.88-1.44-9.88-2.52-14.88-3.49c-3.33-0.64-3.82,0.03-3.17,3.25
		c0.22,1.08,0.39,2.22,0.85,3.2c3.46,7.43,6.86,14.9,10.55,22.22c1.15,2.28,3.12,4.15,4.72,6.21c3.96,4.02,8.15,7.84,11.83,12.1
		c13,15.05,25.96,30.13,38.67,45.42c11.23,13.52,22.29,27.14,36.17,38.13c0.86,0.68,1.77,1.31,2.66,1.96
		c0.11-1.9-0.34-3.23-0.86-4.53c-2.57-6.4-6.88-11.57-11.36-16.71c-14.99-17.17-29.84-34.47-44.75-51.72c0.27-0.3,0.53-0.6,0.8-0.91
		c0.89,0.31,1.86,0.5,2.67,0.96c11.5,6.51,23.23,12.65,34.36,19.72c7.34,4.66,13.81,10.69,20.67,16.1c2.14,6,4.88,11.87,6.31,18.04
		c3.75,16.2,3.81,32.58,0.58,48.91c-7.2,36.46-26.68,65.36-55.06,88.64c-20.19,16.56-43.08,28.03-68.12,35.3
		c-1.53,0.44-3,1.07-4.5,1.61c0,0.4,0,0.8,0.01,1.21c1.31,0.25,2.69,0.88,3.93,0.68c4.27-0.67,8.49-1.67,12.74-2.43
		c0.84-0.15,1.77,0.15,2.65,0.24c-5.03,1.66-10.05,3.31-15.63,5.15c3.22,3.4,6.05,1.19,8.71,1.16c-2.34,5.56-5.67,10.91-6.84,16.71
		c-3.42,16.95-5.99,34.07-8.88,51.12c-1.91,11.3-5.2,21.91-12.95,30.86c-12.6,14.57-28.24,24.89-46,31.43
		c-16.62,6.12-33.77,10.91-50.92,15.44c-18.42,4.86-37.11,8.33-56.19,3.07c-0.5-0.14-1.15,0.26-2.3,0.56c1.97,1.56,3.5,2.78,5.04,4
		c0.06,0.55-0.08,1.4,0.22,1.61c11.61,8.07,23.36,15.89,37.56,18.8c7.61,1.56,15.18,3.42,22.86,4.49
		c21.89,3.05,43.37,1.77,64.29-6.24c22.66-8.68,37.19-24.35,41.64-48.32c3.06-16.46,4.98-33.14,7.36-49.72
		c0.76-5.27,1.15-10.6,2.11-15.83c0.46-2.49,1.18-5.3,4.37-6.05c0.38,3.75,0.65,7.52,1.16,11.26c0.72,5.27,1.04,10.7,2.61,15.73
		c1.22,3.93,4.08,7.36,6.21,11.01c4.02,4.09,7.65,8.67,12.14,12.16c7.77,6.06,17.24,5.21,24.49-1.58c1.84-1.72,3.43-3.78,4.83-5.89
		c5.22-7.84,8.19-16.65,10.73-25.62c0.49,0.53,1.22,0.97,1.44,1.6c1.01,2.93,1.46,6.14,2.88,8.83c2.97,5.6,6.43,10.93,9.68,16.38
		c1.47,1.8,2.94,3.61,4.43,5.39c6.95,8.35,16.09,11.78,26.62,10.7c13.45-1.38,25.48-6.57,35.56-15.73
		c10.8-9.82,19.64-21.34,28.15-33.13c0.12,1.22,0.53,2.48,0.33,3.64c-2.36,13.56-4.82,27.11-7.24,40.66
		c-0.19,1.05-0.21,2.13-0.31,3.19c0.32,0.03,0.64,0.05,0.97,0.08c4.64-17.67,7.87-35.64,10.81-53.67c0.78-1.19,1.57-2.38,2.35-3.56
		c0.28,0.13,0.57,0.26,0.85,0.39c-3.22,18.86-6.44,37.72-9.66,56.58c0.29,0.06,0.58,0.13,0.88,0.19c0.56-1.68,1.31-3.33,1.64-5.05
		c3.41-17.99,6.68-36.01,10.18-53.98c0.55-2.83,1.58-5.81,3.2-8.15c11.9-17.19,22.66-35.05,32.43-53.51
		c1.09-2.05,2.18-4.18,2.75-6.4c3.48-13.39,4.94-27.07,5.21-40.87c0.03-1.65-0.45-3.31-0.85-5.93c-1.41,1.8-2.14,2.73-2.87,3.66
		c-0.55-2.42-1.1-4.84-1.81-7.93c-1.19,1.49-1.92,2.31-2.53,3.2c-8.74,12.6-17.44,25.21-26.22,37.78c-0.66,0.94-1.81,1.54-2.72,2.3
		c-0.92-8.79-1.27-17.69-2.9-26.35c-2.04-10.86-5.76-21.19-15.16-28.29c-0.69-0.84-1.27-1.81-2.08-2.51
		c-6.15-5.32-14.83-5.94-22.28-1.41c-3.67,2.23-7.11,4.84-10.66,7.28c0.75-1.84,1.52-3.67,2.24-5.52
		c8.35-21.56,8.87-43.63,3.7-65.87c-6.08-26.15-18.16-49.77-31.83-72.61c-9.52-15.9-21.86-29.37-36.4-40.85
		c-0.5-0.39-1-0.79-1.5-1.18c-0.12-0.11-0.25-0.21-0.4-0.29C401.44,76.56,400.68,76,399.92,75.43z M329.21,95.45
		c0,0-0.03-0.03-0.03-0.03c-0.73-0.76-1.37-1.65-2.21-2.27C310.76,81.1,292.91,72,274.39,64.12c-7.33-3.12-14.75-6.08-22.27-8.73
		c-3.8-1.34-5.32,0.22-3.65,3.95c3.88,8.67,8.26,17.12,12.49,25.64c0.25,0.51,0.96,0.79,1.46,1.18c0.62,1.02,1.14,2.13,1.88,3.05
		c17.31,21.69,34.64,43.36,51.96,65.04c6.65,8.33,13.27,16.68,19.94,24.99c1.02,1.27,2.29,2.35,3.44,3.51
		c0.29-1.53,0.1-2.64-0.43-3.55c-17.67-30.28-39.78-57.37-61.28-85.46c1.23,0.33,2.22,0.43,3.04,0.85
		c21.08,10.73,42.05,21.69,61.15,35.76c5.47,4.03,10.22,9.02,15.3,13.58c0.41,1.12,0.78,2.25,1.23,3.35
		c1.77,4.3,3.91,8.49,3.21,13.41c-2.05,14.38-7,27.62-16.36,38.81c-6.05,7.23-12.5,14.17-19.29,20.7
		c-10.49,10.07-21.62,19.49-32.15,29.53c-13.95,13.31-22.36,29.62-25.54,48.72c-2.41,14.45-2.16,28.99-2.51,43.54
		c-0.2,8.19-0.56,16.47-1.93,24.53c-3.12,18.42-13.38,33.09-26.65,45.53c-24.61,23.08-53.33,39.45-85.43,49.7
		c-10.5,3.36-21.4,5.18-32.54,3.1c-2.68-0.5-5.38-0.87-8.42-1.36c0.27,3.18,1.92,4.29,4.31,4.72c0.01,0.41,0.01,0.82,0.02,1.23
		c0.13,0.29,0.27,0.57,0.4,0.86c1.32,0.9,2.54,2.28,3.99,2.63c6.25,1.51,12.56,2.83,18.88,4c14.88,2.76,29.86,2.02,44.86,1.26
		c24.59-1.25,47.78-7.13,69-19.98c14.31-8.67,25.83-19.84,32.48-35.52c4.19-9.88,5.69-20.24,5.81-30.89
		c0.15-13.55,0-27.11,0.62-40.64c1.05-22.72,9.58-42.27,26.33-57.92c5.6-5.23,11.48-10.14,17.31-15.12
		c11.48-9.81,23.48-19.05,34.39-29.45c14.07-13.42,19.28-30.8,18.83-49.91c-0.35-14.72-5.6-28.18-11.53-41.42
		c-10.04-22.45-22.59-43.02-42.73-58.01c-0.47-0.42-0.94-0.84-1.41-1.26c-0.37-0.3-0.75-0.59-1.12-0.89
		C330.72,96.58,329.97,96.02,329.21,95.45z M279.87,216.8c-0.91-0.62-1.84-1.2-2.72-1.85c-5.79-4.25-12.18-6.92-19.46-6.78
		c-6.14,0.12-11.24,3.46-12.79,8.46c-2.01,6.48-0.48,12.85,0.78,19.94c0.82-1.28,1.2-1.88,1.58-2.48c0.39,2.07,0.78,4.13,1.16,6.2
		c1.63-5.34,2.86-6.67,8.32-6.88c3.16-0.12,6.61-0.01,9.49,1.12c6.07,2.36,11.86,5.44,17.75,8.25c1.63,0.78,3.22,1.63,5.6,2.84
		c0-2.56,0.22-4.21-0.04-5.79c-1.39-8.31-2.76-16.63-4.43-24.88c-0.63-3.1-0.21-5.82,1.56-8.21c3.26-4.39,4.19-9.19,3.33-14.48
		c-0.52-3.18-0.69-6.44-1.51-9.53c-0.44-1.65-1.91-3.02-2.92-4.51c-0.85-1.2-1.7-2.39-2.55-3.59c-1.19,1.02-2.6,1.88-3.52,3.11
		c-0.75,1.01-1.19,2.43-1.29,3.71c-0.26,3.19-0.54,6.43-0.31,9.61c0.62,8.49,1.5,16.95,2.28,25.43
		C280.08,216.59,279.98,216.69,279.87,216.8z M460.73,499.52c0.23-0.39,0.47-0.78,0.7-1.18c-1.5-0.29-3.2-1.19-4.46-0.77
		c-3.3,1.11-6.41,2.79-9.6,4.24c-5.09-0.87-7.25-4.95-4.17-9.19c3.1-4.26,6.62-8.57,10.87-11.55c10.15-7.13,20.84-13.49,31.32-20.15
		c0.88-0.56,1.83-1,2.75-1.5c-0.06-0.19-0.12-0.37-0.17-0.56c-0.41-0.02-0.82-0.04-1.23-0.07c-0.28-2.18-1.72-1.61-2.87-1.06
		c-4.69,2.25-9.51,4.33-13.97,6.98c-10.75,6.39-21.53,12.77-31.86,19.79c-3.89,2.64-6.91,6.83-9.68,10.76
		c-2.12,3.01-1.14,5.67,1.62,7.64c2.64,3,6.07,3.85,9.86,3.43C447.26,505.53,454.3,503.42,460.73,499.52z M478.76,130.6
		c0.86,3.6,1.7,7.2,2.58,10.79c2.84,11.62,6.01,23.19,11.88,33.67c2.54,4.55,6.01,8.81,9.84,12.35c4.81,4.45,11,1.96,11.67-4.51
		c1.06-10.29-1.16-20.15-5.17-29.63c0.26,3.64,1.02,7.18,1.69,10.74c0.16,0.85,0.03,1.76,0.04,2.64c-4.27,4.02-6.77,4.25-11.58,0.67
		c-1.94-1.44-4.12-3-5.22-5.03c-3.72-6.88-7-14.01-10.47-21.03c-0.57-1.14-1.27-2.22-1.91-3.32c-0.89-3.54-1.77-7.08-2.66-10.62
		c-0.67-3.19-1.34-6.38-2-9.58c-0.24,0.05-0.47,0.11-0.71,0.16c0.44,3.14,0.88,6.27,1.31,9.41c0.08,0.43,0.16,0.86,0.24,1.3
		C478.45,129.28,478.61,129.94,478.76,130.6z M260.45,172.28c-4.66-3.82-6.19-9.19-6.38-14.76c-0.35-10.19-0.15-20.4-0.18-30.61
		c0-1.78,0.72-3.86-1.86-4.59c0.04-0.07,0.07-0.14,0.11-0.21c-0.06,0.01-0.13,0.02-1.12,0.14c-0.1,14.71-0.4,29.56-0.21,44.39
		c0.08,6.59,1.78,12.99,5.7,18.53c4.11,5.81,11.46,6.51,16.34,1.3c1.74-1.86,3.08-4.41,3.77-6.88c2.17-7.69,3.5-15.52,1.98-23.55
		c-0.53-0.96-1.05-1.92-2.01-3.66c-0.39,3.28-0.75,5.67-0.94,8.07C274.92,169.39,269.1,173.94,260.45,172.28z M306.4,527.85
		c3.29,7.01,2,10.55-5.16,13.87c-1.5,0.7-3.08,1.27-4.67,1.7c-11.23,3.03-22.68,3.68-34.24,3.18c-2.63-0.11-5.27-0.06-7.9-0.08
		c-0.38-0.02-0.77-0.05-1.15-0.07c-1.18-0.16-2.37-0.31-3.55-0.47c-0.59-0.07-1.19-0.13-1.78-0.2c-0.96-0.15-1.93-0.3-2.89-0.45
		c-0.59-0.08-1.18-0.16-1.77-0.24c-0.74-0.12-1.49-0.24-2.23-0.36c-0.59-0.09-1.17-0.18-1.76-0.27c-1.57-0.4-3.13-0.81-4.7-1.21
		c-0.08,0.28-0.16,0.56-0.23,0.83c1.41,0.49,2.82,0.99,4.23,1.48c1.97,0.68,3.9,1.63,5.93,1.99c6.33,1.13,12.69,2.08,19.05,3.03
		c12.41,1.85,24.86,3.45,37.44,2.3c6.52-0.6,13.05-1.46,18.7-5.22c7.99-5.31,7.98-12.04-0.26-16.82
		c-7.35-4.26-15.32-6.97-23.83-7.84c-1.28-0.13-2.58-0.02-3.88-0.02c-0.05,0.28-0.1,0.56-0.15,0.84c4.1,1.06,8.21,2.11,12.3,3.19
		C304.74,527.23,305.56,527.57,306.4,527.85z M534.33,241.34c0.09,0.31,0.17,0.62,0.26,0.92c0.28,1.7,0.55,3.41,0.83,5.11
		c0.1,0.8,0.19,1.6,0.29,2.4c0.08,0.97,0.16,1.94,0.25,2.91c0.32,10.7-1.57,21.43-0.35,32.12c0.39,0.01,0.78,0.02,1.16,0.03
		c0.2-3.16,0.39-6.32,0.59-9.47c0.04-0.85,0.08-1.7,0.12-2.54c0.12-1.37,0.23-2.74,0.35-4.11c0.03-6.65,0.06-13.3,0.09-19.96
		c-0.14-1.82-0.29-3.65-0.43-5.47c-1.64-7.78-2.75-15.72-5.12-23.27c-1.3-4.13-4.3-7.98-7.29-11.28c-3.45-3.82-8.92-3.53-12.31,0.42
		c-1.96,2.28-3.54,5.17-4.4,8.05c-2.73,9.05-3.09,18.34-1.51,27.66c0.36,2.1,1.2,4.13,1.81,6.18c0.37-0.07,0.74-0.13,1.1-0.2
		c-0.24-2.69-0.34-5.41-0.75-8.07c-0.75-4.89-0.33-9.51,2.43-13.74c4.28-6.56,13.18-6.99,17.53-0.54c2.07,3.06,3.17,6.78,4.71,10.2
		c0.13,0.46,0.25,0.93,0.38,1.39C534.16,240.49,534.25,240.91,534.33,241.34z M81.98,389.31c-0.52-0.36-1.03-0.72-1.55-1.08
		c-8.12-5.53-12.95-13.19-14.89-22.77c-0.7-3.48-1.89-6.89-2.27-10.39c-1.45-13.22-2.64-26.47-3.97-39.71
		c-0.12-1.17-0.51-2.3-0.78-3.46c-0.38,0.03-0.76,0.06-1.14,0.09c-0.29,3.57-0.58,7.15-0.87,10.72c-0.51-3.65-1-7.3-1.54-10.94
		c-0.22-1.46-0.54-2.91-0.82-4.37c-0.43,0.04-0.86,0.08-1.29,0.12c-0.68,8.81-2.26,17.66-1.83,26.41c0.62,12.6,2.06,25.24,4.3,37.65
		c3.45,19.12,10.04,37.29,19.51,54.32c0.98,1.76,2.51,3.22,3.78,4.82c2.62,3.25,5,6.73,7.89,9.72
		c12.96,13.39,28.29,21.19,47.5,19.85c12.85-0.9,24.87-4.64,36.29-10.31c24.84-12.33,37.16-32.68,37.05-60.22
		c-0.04-9.61-1.25-19.31-2.85-28.81c-3.82-22.56-7.88-45.12-21.38-64.89c12-7.39,20.58-17.83,27.02-30.15
		c6.31-12.05,11.29-24.65,14.59-37.83c2.67-10.67,1.55-36.38-1.46-40.51c-0.47,1.16-0.88,2.16-1.29,3.15
		c-0.44-0.83-1.04-1.61-1.29-2.5c-0.45-1.62-0.7-3.31-1.03-4.97c-0.31-0.01-0.61-0.02-0.92-0.03c-0.75,1.9-1.52,3.8-2.24,5.71
		c-4.98,13.1-10.34,26-19.96,36.57c-7.27,7.99-16.12,11.04-26.74,8.48c-1.7-0.41-3.36-0.98-5.04-1.48c-4.94-3.82-5.02-3.91-2.63-9.6
		c6.22-14.79,15.38-27.71,25.39-40.12c10.8-13.4,21.52-26.88,31.98-40.55c4.4-5.75,7.77-12.3,8.99-19.52
		c2.56-15.12,2.23-30.32,0.3-45.5c-0.52-4.11-2.36-7.36-6.23-9.23c-0.99-3.49-3.84-4.69-6.9-4.55c-4.28,0.19-8.65,0.67-12.78,1.79
		c-12.62,3.45-24.16,9.48-35.52,15.81c-13.73,7.65-26.82,16.22-37.44,28.02c-5.25,5.84-10.2,12.09-10.54,20.3
		c-0.41,9.85-0.31,19.74,0.01,29.59c0.15,4.75,1.29,9.48,5.68,12.5c5.67,8.71,14.18,11.98,24.08,12.61
		c0.73,0.03,1.46,0.06,2.18,0.09c0.33,0.04,0.67,0.07,1,0.11c-0.82,4.23-1.95,8.44-2.42,12.71c-2.38,21.61-2.73,43.17,2.35,64.63
		c-6.57,3.08-13.19,5.66-20.37,1.3c-1.59-0.97-3.49-1.43-5.25-2.09c-4.83-1.82-6.18-1.04-6.07,4.06c0.2,9.39,1.91,18.56,5.2,27.35
		c0.91,2.44,3.07,4.42,4.66,6.61c4.91,7.53,12.88,10.99,20.29,15.15c4.36,2.45,8.56,4.97,11.4,9.25c0.39,1,0.69,2.04,1.18,2.99
		c5.78,11.15,9.03,22.99,8.8,35.55c-0.14,7.45-1.98,14.87-7.82,19.94c-22.14,19.22-54.3,23.05-79.28,8.75
		c-0.92-0.53-2.01-0.77-3.02-1.15C81.99,389.33,81.98,389.31,81.98,389.31z M232.47,331.6c-1.72-2.38-4.19-4.53-5.02-7.19
		c-2.01-6.42-3.55-13.04-4.74-19.67c-1.12-6.26-1.55-12.65-2.33-19.39c-0.55,1.34-0.94,2.3-1.33,3.26
		c-0.18-0.03-0.35-0.06-0.53-0.09c-0.08-1.48-0.17-2.96-0.25-4.43c-0.38,1.72-0.79,3.46-0.76,5.2c0.21,11.32-0.01,22.68,0.96,33.93
		c0.72,8.32,2.7,16.59,4.75,24.73c1.2,4.76,4.26,8.76,8.52,11.56c6.73,4.43,11.83,3.14,14.77-4.39c4.45-11.41,5.77-23.42,5.39-35.61
		c-0.04-1.42-1.27-2.81-1.94-4.21c-0.51-0.9-1.03-1.8-1.54-2.7c-0.28,0.02-0.56,0.03-0.85,0.05c-0.43,2.87-1.24,5.75-1.19,8.62
		c0.07,4.65-2.53,7.19-6.28,8.7C237.72,330.94,235.02,331.09,232.47,331.6z M351.13,501.68c0.63,2.83,2.55,4.47,5.23,4.97
		c8.6,1.59,17.25,2.91,25.84,4.57c3.02,0.58,4.09-0.81,4.43-3.3c1.42-10.43,2.77-20.86,4.12-31.3c0.52-3.98,0.08-7.47-4.79-8.42
		c0.55-2.23-0.46-3.31-2.6-3.68c-8.51-1.46-17-3-25.52-4.42c-5.3-0.88-6.37-0.15-7.75,5.05c-2.59,9.7-3.67,19.58-3.49,29.62
		C346.68,498.12,347.78,500.59,351.13,501.68z M97.15,354.84c1.08,2.81,2.69,5.08,5.91,5.64c8.5,1.47,17.02,2.83,25.48,4.47
		c3.18,0.62,4.27-0.9,4.62-3.49c1.41-10.52,2.76-21.06,4.1-31.59c0.49-3.8-0.06-7.04-4.69-7.79c0.41-2.36-0.72-3.51-2.95-3.89
		c-9.19-1.56-18.36-3.17-27.55-4.7c-3.14-0.52-4.39,1.62-5.12,4.12c-3.05,10.55-4.25,21.33-3.71,32.29
		C93.36,352.32,94.16,354.53,97.15,354.84z"/>
	<path class="st2" d="M56.5,322.72c0.29-3.57,0.58-7.15,0.87-10.72c0.38-0.03,0.76-0.06,1.14-0.09c0.27,1.15,0.66,2.29,0.78,3.46
		c1.33,13.24,2.53,26.49,3.97,39.71c0.38,3.5,1.57,6.92,2.27,10.39c1.94,9.58,6.78,17.24,14.89,22.77c0.52,0.36,1.03,0.72,1.55,1.08
		c0,0,0.02,0.01,0.02,0.01c1.51,1.35,2.87,2.95,4.56,4.02c23.95,15.25,54.14,12.69,74.9-1.62c4.04-2.78,8.21-6.07,10.77-10.12
		c3.82-6.05,5.47-13.23,4.13-20.49c-1.4-7.61-2.79-15.33-5.39-22.58c-1.96-5.45-5.82-10.22-8.83-15.29
		c-2.84-4.27-7.04-6.8-11.4-9.25c-7.41-4.16-15.38-7.62-20.29-15.15c-0.25-0.95-0.57-1.89-0.75-2.85
		c-1.58-8.47-3.55-16.9-4.56-25.44c-0.75-6.4,0.86-7.2,6.78-4.83c1.65,0.66,3.49,0.99,4.95,1.93c6.2,4.03,12.14,1.87,18.03-0.62
		c0.73-0.31,1.69-1.7,1.52-2.28c-2.72-9.25-3.14-18.78-3.54-28.31c-0.59-13.89-0.23-27.72,2.66-41.38
		c0.76-3.61,1.84-7.15,2.79-10.79c-2.23,0-4.1,0-5.97,0c-0.33-0.04-0.67-0.07-1-0.11c-0.73-0.03-1.46-0.06-2.18-0.09
		c-9.9-0.63-18.41-3.9-24.08-12.61c-2.39-10.15-1.94-20.46-1.96-30.77c-0.03-10.34,3.71-19.03,10.7-26.45
		c2.28-2.42,4.58-4.85,7.04-7.08c14.9-13.49,32.29-23.05,50.41-31.33c9.9-4.52,19.99-8.7,31.28-7.84c3.87,1.87,5.71,5.12,6.23,9.23
		c1.92,15.18,2.25,30.38-0.3,45.5c-1.22,7.23-4.59,13.77-8.99,19.52c-10.46,13.67-21.18,27.15-31.98,40.55
		c-10.01,12.42-19.17,25.33-25.39,40.12c-2.39,5.68-2.31,5.78,2.63,9.6c2.02,3.73,5.74,5,9.4,5.98
		c11.95,3.19,21.15-1.45,28.69-10.53c9.14-11,14.11-24.13,19.13-37.24c0.41-0.99,0.81-1.99,1.29-3.15
		c3.01,4.12,4.13,29.84,1.46,40.51c-3.3,13.18-8.28,25.77-14.59,37.83c-6.45,12.32-15.03,22.76-27.02,30.15
		c13.5,19.77,17.56,42.34,21.38,64.89c1.61,9.5,2.82,19.2,2.85,28.81c0.11,27.54-12.21,47.89-37.05,60.22
		c-11.43,5.67-23.44,9.41-36.29,10.31c-19.21,1.34-34.54-6.45-47.5-19.85c-2.89-2.99-5.27-6.47-7.89-9.72
		c-0.16-0.62-0.22-1.29-0.51-1.84c-8.33-16.02-14.38-32.87-18.11-50.51c-3.4-16.07-5.84-32.26-4.27-48.78
		C55.95,327.29,56.24,325.01,56.5,322.72z M197.92,112.53c-0.92,0.31-1.85,0.56-2.74,0.92c-19.44,8-38.31,16.99-54.27,31.05
		c-0.44,0.39-0.71,0.98-1.06,1.48c-2.03,0.92-1.64,1.84,0.08,2.57c10.08,4.31,20.66,6.59,31.54,7.48c0.81,0.07,1.94-0.86,2.54-1.62
		c8.94-11.44,17.81-22.93,26.71-34.39c2.65-3.41,5.35-6.77,8.03-10.15c-0.2-0.24-0.4-0.49-0.6-0.73
		C204.74,110.27,201.33,111.4,197.92,112.53z"/>
	<path class="st3" d="M393.3,408.07c-2.54,8.98-5.51,17.79-10.73,25.62c-1.4,2.1-2.99,4.16-4.83,5.89
		c-7.25,6.8-16.72,7.64-24.49,1.58c-4.48-3.5-8.12-8.07-12.14-12.16c-3.54-8.96-4.18-18.43-5-27.88c-0.23-2.61-0.84-5.27-1.78-7.71
		c-0.41-1.05-2.09-1.62-3.2-2.4c-3.19,0.75-3.92,3.57-4.37,6.05c-0.96,5.23-1.36,10.56-2.11,15.83c-2.38,16.59-4.3,33.26-7.36,49.72
		c-4.45,23.97-18.99,39.65-41.64,48.32c-20.91,8.01-42.4,9.29-64.29,6.24c-7.68-1.07-15.25-2.94-22.86-4.49
		c-14.19-2.9-25.94-10.73-37.56-18.8c-0.3-0.21-0.16-1.06-0.22-1.61c1.09,0.12,2.21,0.15,3.27,0.39
		c10.85,2.45,21.85,3.36,32.72,0.99c17.55-3.83,35.07-7.9,52.39-12.64c21.64-5.92,41.62-15.31,58.57-30.49
		c11.2-10.03,18.19-22.16,20.43-37.1c2.28-15.25,4.53-30.52,7.37-45.67c1.28-6.82,3.86-13.4,6.07-20.02
		c0.76-2.26,2.37-4.05,5.22-3.76c1.12,1.46,2.86,2.77,3.24,4.4c1.57,6.66,2.87,13.4,4,20.15c0.93,5.61,1.33,11.36,6.55,15.06
		c3.15,4.5,7.99,6.08,12.95,7.3c12.47,3.06,24.62-2.76,29.26-14.65c2.43-6.23,3.56-12.98,5.27-19.49c0.59-1.57,1.19-3.13,1.78-4.7
		c0.42,0.05,0.84,0.1,1.25,0.14c0.34,4.01,0.64,8.03,1.01,12.04c1,10.75,4.51,20.31,13.16,27.39c0.68,0.81,1.24,1.78,2.05,2.41
		c4.96,3.85,10.69,4.98,16.86,4.92c8.34-0.08,16.06-2.18,23.69-6.18c-2.07-1.81-3.79-3.32-5.51-4.82c-1.94-2.33-3.87-4.65-5.81-6.98
		c-0.12-0.63-0.13-1.3-0.37-1.88c-2.92-6.84-4.19-13.98-4.15-21.41c0.09-16.04,1.89-31.91,5.54-47.5
		c4.58-19.56,14.25-35.96,31.06-47.67c7.23-5.03,14.72-6.26,22.82-2.45c9.4,7.09,13.12,17.42,15.16,28.29
		c1.63,8.66,1.98,17.56,2.9,26.35c0,3.99,0,7.98,0,12.35c11.31-16.2,22.3-31.95,33.29-47.7c0.73-0.93,1.45-1.85,2.87-3.66
		c0.39,2.63,0.88,4.29,0.85,5.93c-0.27,13.81-1.74,27.48-5.21,40.87c-0.58,2.22-1.67,4.35-2.75,6.4
		c-9.78,18.46-20.54,36.33-32.43,53.51c-1.62,2.34-2.65,5.32-3.2,8.15c-3.5,17.97-6.77,35.99-10.18,53.98
		c-0.33,1.73-1.08,3.37-1.64,5.05c-0.29-0.06-0.58-0.12-0.88-0.19c3.22-18.86,6.44-37.72,9.66-56.58c-0.28-0.13-0.57-0.26-0.85-0.39
		c-0.78,1.19-1.57,2.38-2.35,3.56c-1.52,2.03-3.04,4.06-4.55,6.1c-8.51,11.79-17.34,23.32-28.15,33.13
		c-10.08,9.16-22.11,14.34-35.56,15.73c-10.53,1.08-19.67-2.35-26.62-10.7c-1.49-1.79-2.95-3.6-4.43-5.39
		c-2.23-5.13-5.05-10.1-6.54-15.44c-2.11-7.53-3.23-15.34-4.67-22.5C395.27,400.23,394.29,404.15,393.3,408.07z M461.32,340.16
		c3.71,2.42,7.14,5.6,11.19,7.11c11.46,4.27,22.08,1.22,31.67-5.59c12.25-8.7,11.21-5.44,8.28-20.88
		c-1.15-6.04-3.18-11.97-8.26-16.16c-4.12-4.85-10.89-6.42-17.6-3.9c-11.67,4.39-20.17,12.8-27.32,22.59
		C453.13,331.75,451.53,331,461.32,340.16z"/>
	<path class="st4" d="M115.36,469.4c-0.01-0.41-0.01-0.82-0.02-1.23c1.43,0.16,2.85,0.36,4.28,0.48c5.96,0.48,12,1.79,17.85,1.2
		c7.78-0.79,15.68-2.29,23.06-4.84c28.87-9.96,55-24.88,77.91-45.17c8.86-7.85,16.48-16.82,22.29-27.2
		c6.84-12.23,9.39-25.54,9.72-39.38c0.3-12.44,0.09-24.91,0.89-37.31c1.04-16.12,4.74-31.62,13.73-45.42
		c7.36-11.3,17.29-20.22,27.06-29.3c10.26-9.52,20.84-18.72,30.67-28.65c12.06-12.19,19.98-26.78,22.91-43.92
		c1.69-9.84-2.11-17.64-8.3-24.73c-5.08-4.55-9.83-9.55-15.3-13.58c-19.1-14.07-40.07-25.03-61.15-35.76
		c-0.82-0.42-1.81-0.52-3.04-0.85c21.49,28.1,43.61,55.19,61.28,85.46c0.53,0.91,0.73,2.02,0.43,3.55
		c-1.15-1.17-2.42-2.24-3.44-3.51c-6.68-8.31-13.29-16.66-19.94-24.99c-17.32-21.68-34.65-43.35-51.96-65.04
		c-0.74-0.93-1.26-2.03-1.88-3.05c-1.61-3.37-3.29-6.71-4.8-10.12c-1.66-3.75-3.35-7.51-4.69-11.38c-1.53-4.41-0.27-5.69,4.16-4.56
		c1.93,0.49,3.87,1.05,5.71,1.8c22.01,9.02,43.74,18.61,63.49,32.11c0.88,0.6,1.92,0.96,2.89,1.44c0,0,0.03,0.03,0.03,0.03
		c0.76,0.56,1.51,1.13,2.27,1.69c0.37,0.3,0.75,0.59,1.12,0.89c0.47,0.42,0.94,0.84,1.41,1.26c20.14,14.99,32.69,35.57,42.73,58.01
		c5.92,13.24,11.18,26.7,11.53,41.42c0.45,19.11-4.76,36.49-18.83,49.91c-10.91,10.4-22.91,19.65-34.39,29.45
		c-5.82,4.98-11.71,9.89-17.31,15.12c-16.75,15.64-25.28,35.2-26.33,57.92c-0.62,13.53-0.48,27.09-0.62,40.64
		c-0.12,10.64-1.62,21.01-5.81,30.89c-6.65,15.67-18.16,26.85-32.48,35.52c-21.22,12.85-44.41,18.74-69,19.98
		c-15,0.76-29.98,1.5-44.86-1.26c-6.33-1.18-12.63-2.5-18.88-4c-1.46-0.35-2.67-1.73-3.99-2.63
		C115.63,469.97,115.49,469.69,115.36,469.4z"/>
	<path class="st5" d="M404.09,78.58c14.53,11.48,26.88,24.95,36.4,40.85c13.67,22.84,25.75,46.47,31.83,72.61
		c5.17,22.25,4.65,44.32-3.7,65.87c-0.72,1.85-1.49,3.68-2.24,5.52c-5.28,11.78-11.91,22.66-21.06,31.88
		c-0.06,0.07-0.19,0.15-0.18,0.21c0.01,0.16,0.08,0.32,0.12,0.48c0,0,0.05-0.05,0.05-0.05c-0.89,0.5-1.83,0.93-2.66,1.51
		c-3.17,2.25-6.17,4.75-9.47,6.79c-17.2,10.66-35.84,18.05-55.16,23.83c-0.47,0.18-0.93,0.35-1.4,0.53l-0.1,0.04
		c-0.46,0.13-0.93,0.26-1.39,0.4c-5.67,1.47-11.31,3.13-17.03,4.38c-8.72,1.9-17.5,3.5-26.25,5.24c-0.7,0.14-1.39,0.28-2.09,0.42
		c-2.65,0.03-5.49,2.24-8.71-1.16c5.57-1.84,10.6-3.49,15.63-5.15c2.06-0.75,4.13-1.44,6.16-2.25
		c37.27-14.85,67.9-37.89,88.95-72.56c11.66-19.21,18.39-40.06,19.61-62.59c0.64-11.83-0.43-23.54-3.06-35.05
		c-1.68-7.37-4.75-14.22-10.2-19.75c-6.86-5.42-13.33-11.44-20.67-16.1c-11.14-7.08-22.87-13.22-34.36-19.72
		c-0.81-0.46-1.78-0.65-2.67-0.96c-0.27,0.3-0.53,0.6-0.8,0.91c14.9,17.25,29.75,34.55,44.75,51.72
		c4.48,5.13,8.79,10.31,11.36,16.71c0.52,1.3,0.97,2.63,0.86,4.53c-0.89-0.65-1.8-1.28-2.66-1.96
		c-13.88-10.99-24.94-24.61-36.17-38.13c-12.71-15.29-25.67-30.37-38.67-45.42c-3.68-4.26-7.87-8.08-11.83-12.1
		c-0.43-0.99-0.84-1.99-1.29-2.98c-3.17-6.83-6.64-13.54-9.43-20.52c-2.74-6.83-1.7-7.89,5.57-6.29
		c15.47,3.41,30.16,8.88,43.78,17.07c4.61,2.77,9.32,5.39,13.98,8.08l0.03,0.02c0.76,0.56,1.52,1.12,2.28,1.68
		c0.14,0.08,0.28,0.18,0.4,0.29C403.09,77.8,403.59,78.19,404.09,78.58z"/>
	<path class="st5" d="M91.37,160.47c9.64,9.99,18.47,20.46,20.29,34.96c2.71,21.66,1.43,42.95-5.69,63.76
		c-3.31,9.67-9.26,17.27-16.9,23.82c-1.89,1.62-3.32,3.77-4.94,5.66c-3.9-1.75-1.39-4.79-1.62-7.25c0.83-1.38,2.12-2.67,2.43-4.15
		c3.18-15.3,6.53-30.58,9.11-45.98c1.28-7.65,1.05-15.54,1.5-23.33c-0.3-0.07-0.61-0.14-0.91-0.21c-1.58,2.33-3.15,4.67-4.73,7
		c-4.58,7.58-9.49,14.99-13.66,22.8c-4.41,8.26-6.38,17.05-2.45,26.24c0.16,0.36,0.02,0.85-0.68,1.81c-2.9-3.6-5.79-7.19-8.69-10.79
		c-0.36-0.51-0.73-1.03-1.09-1.54c0,0-0.02-0.03-0.02-0.03c-0.44-0.65-0.88-1.31-1.32-1.96c0,0-0.02-0.03-0.02-0.03
		c-0.58-1.4-1.14-2.8-1.74-4.19c-1.71-3.96-3.98-7.77-5.05-11.89c-3.65-14.07-0.21-27.24,7.28-39.08
		c6.37-10.08,13.99-19.38,21.31-28.82C85.83,164.63,88.82,162.72,91.37,160.47z"/>
	<path class="st6" d="M357.42,143.91c6.19,7.09,9.98,14.89,8.3,24.73c-2.93,17.14-10.85,31.73-22.91,43.92
		c-9.83,9.94-20.41,19.14-30.67,28.65c-9.77,9.07-19.71,18-27.06,29.3c-8.99,13.8-12.69,29.3-13.73,45.42
		c-0.8,12.4-0.59,24.87-0.89,37.31c-0.33,13.84-2.88,27.16-9.72,39.38c-5.81,10.38-13.44,19.35-22.29,27.2
		c-22.91,20.3-49.04,35.22-77.91,45.17c-7.38,2.55-15.28,4.05-23.06,4.84c-5.85,0.59-11.89-0.71-17.85-1.2
		c-1.43-0.12-2.85-0.31-4.28-0.48c-2.38-0.43-4.04-1.54-4.31-4.72c3.04,0.49,5.74,0.86,8.42,1.36c11.15,2.08,22.04,0.26,32.54-3.1
		c32.1-10.25,60.82-26.62,85.43-49.7c13.27-12.44,23.53-27.11,26.65-45.53c1.37-8.06,1.73-16.34,1.93-24.53
		c0.35-14.55,0.1-29.09,2.51-43.54c3.18-19.1,11.59-35.41,25.54-48.72c10.53-10.04,21.65-19.46,32.15-29.53
		c6.8-6.52,13.25-13.47,19.29-20.7c9.36-11.19,14.32-24.43,16.36-38.81c0.7-4.93-1.44-9.11-3.21-13.41
		C358.2,146.16,357.83,145.03,357.42,143.91z"/>
	<path class="st4" d="M132.58,322.08c4.63,0.75,5.18,3.99,4.69,7.79c-1.34,10.53-2.69,21.07-4.1,31.59
		c-0.35,2.59-1.43,4.11-4.62,3.49c-8.47-1.64-16.99-3-25.48-4.47c-3.23-0.56-4.83-2.83-5.91-5.64c0.06-1.54,0.01-3.1,0.21-4.63
		c1.16-8.87,2.12-17.78,3.67-26.59c0.98-5.53,2.47-6.08,7.93-5.19C116.82,319.71,124.7,320.87,132.58,322.08z"/>
	<path class="st4" d="M385.97,468.21c4.86,0.95,5.3,4.44,4.79,8.42c-1.35,10.44-2.71,20.87-4.12,31.3c-0.34,2.49-1.41,3.88-4.43,3.3
		c-8.59-1.66-17.24-2.98-25.84-4.57c-2.68-0.5-4.6-2.14-5.23-4.97c-0.33-10.92,0.44-21.73,3.48-32.29c1.36-4.72,2.62-5.51,7.38-4.78
		C369.98,465.85,377.98,467.01,385.97,468.21z"/>
	<path class="st6" d="M329.75,339.08c0.7-0.14,1.39-0.28,2.09-0.42c1.64,1.77,3.28,3.55,4.91,5.32c-2.85-0.29-4.46,1.5-5.22,3.76
		c-2.22,6.61-4.8,13.2-6.07,20.02c-2.84,15.15-5.09,30.42-7.37,45.67c-2.23,14.93-9.23,27.07-20.43,37.1
		c-16.95,15.18-36.93,24.57-58.57,30.49c-17.32,4.74-34.84,8.8-52.39,12.64c-10.87,2.37-21.87,1.46-32.72-0.99
		c-1.07-0.24-2.18-0.26-3.27-0.39c-1.53-1.22-3.07-2.43-5.04-4c1.16-0.3,1.8-0.69,2.3-0.56c19.07,5.26,37.77,1.79,56.19-3.07
		c17.14-4.53,34.3-9.32,50.92-15.44c17.76-6.55,33.4-16.87,46-31.43c7.75-8.95,11.04-19.57,12.95-30.86
		c2.89-17.06,5.46-34.18,8.88-51.12C324.09,350,327.41,344.64,329.75,339.08z"/>
	<path class="st7" d="M438.13,140.58c5.45,5.52,8.52,12.38,10.2,19.75c2.63,11.51,3.7,23.22,3.06,35.05
		c-1.21,22.53-7.94,43.38-19.61,62.59c-21.05,34.67-51.68,57.71-88.95,72.56c-2.03,0.81-4.11,1.5-6.16,2.25
		c-0.89-0.09-1.81-0.39-2.65-0.24c-4.25,0.77-8.47,1.77-12.74,2.43c-1.24,0.19-2.62-0.43-3.93-0.68c0-0.4,0-0.8-0.01-1.21
		c1.5-0.54,2.97-1.16,4.5-1.61c25.04-7.27,47.93-18.74,68.12-35.3c28.38-23.28,47.86-52.18,55.06-88.64
		c3.23-16.33,3.17-32.71-0.58-48.91C443.01,152.45,440.27,146.58,438.13,140.58z"/>
	<path class="st8" d="M285.57,178.21c1.01,1.49,2.48,2.86,2.92,4.51c0.82,3.09,1,6.35,1.51,9.53c0.86,5.29-0.07,10.09-3.33,14.48
		c-1.77,2.39-2.19,5.11-1.56,8.21c1.67,8.26,3.05,16.57,4.43,24.88c0.26,1.57,0.04,3.23,0.04,5.79c-2.39-1.21-3.98-2.07-5.6-2.84
		c-5.89-2.81-11.68-5.89-17.75-8.25c-2.88-1.12-6.33-1.24-9.49-1.12c-5.45,0.21-6.68,1.54-8.32,6.88c-0.39-2.07-0.78-4.13-1.16-6.2
		c-0.09-0.98-0.22-1.96-0.25-2.94c-0.09-2.43-0.47-4.91-0.14-7.28c1.16-8.52,8.71-13.22,18.08-11.58c6.83,1.2,12.7,4.35,18.36,9.22
		c-0.17-1.35-0.27-1.99-0.32-2.63c-0.79-10.26-1.76-20.51-2.28-30.79C280.5,184.16,281.55,180.3,285.57,178.21z"/>
	<path class="st9" d="M249.96,315.31c0.68,1.4,1.9,2.79,1.94,4.21c0.38,12.18-0.94,24.2-5.39,35.61c-2.94,7.53-8.04,8.82-14.77,4.39
		c-4.26-2.81-7.32-6.8-8.52-11.56c-2.05-8.13-4.03-16.4-4.75-24.73c-0.97-11.26-0.75-22.62-0.96-33.93
		c-0.03-1.73,0.38-3.48,0.76-5.2c0.08,1.48,0.17,2.96,0.25,4.43c0.18,0.03,0.35,0.06,0.53,0.09c0.39-0.96,0.78-1.92,1.33-3.26
		c0.78,6.74,1.21,13.12,2.33,19.39c1.19,6.63,2.73,13.24,4.74,19.67c0.83,2.66,3.3,4.81,5.02,7.19c1.53,2.98,4.3,3.12,6.79,2.22
		c3.76-1.35,7.93-2.6,8.79-7.5C248.69,322.65,249.33,318.98,249.96,315.31z"/>
	<path class="st7" d="M222.56,68.01c-11.3-0.86-21.38,3.31-31.28,7.84c-18.13,8.28-35.51,17.84-50.41,31.33
		c-2.46,2.23-4.76,4.66-7.04,7.08c-6.99,7.42-10.73,16.11-10.7,26.45c0.03,10.31-0.42,20.62,1.96,30.77
		c-4.39-3.03-5.53-7.75-5.68-12.5c-0.31-9.86-0.42-19.74-0.01-29.59c0.34-8.21,5.29-14.46,10.54-20.3
		c10.62-11.8,23.7-20.37,37.44-28.02c11.36-6.33,22.9-12.37,35.52-15.81c4.12-1.13,8.49-1.6,12.78-1.79
		C218.72,63.32,221.57,64.52,222.56,68.01z"/>
	<path class="st10" d="M445.32,295.32c9.16-9.22,15.79-20.1,21.06-31.88c3.55-2.44,6.99-5.05,10.66-7.28
		c7.45-4.53,16.13-3.92,22.28,1.41c0.81,0.7,1.39,1.67,2.08,2.51c-8.1-3.81-15.6-2.59-22.82,2.45
		c-16.81,11.71-26.47,28.11-31.06,47.67c-3.65,15.59-5.45,31.46-5.54,47.5c-0.04,7.43,1.23,14.56,4.15,21.41
		c0.24,0.57,0.26,1.25,0.37,1.87c-0.81-0.84-1.8-1.57-2.41-2.54c-3.6-5.62-5.53-11.86-6.06-18.45c-1.31-16.16,0.95-32.07,3.76-47.91
		c0.96-5.41,2.33-10.74,3.51-16.11c0,0-0.05,0.05-0.05,0.05c0.16-0.03,0.31-0.06,0.47-0.1
		C445.59,295.71,445.45,295.51,445.32,295.32z"/>
	<path class="st7" d="M162.13,323.25c3.01,5.07,6.87,9.84,8.83,15.29c2.6,7.24,3.99,14.96,5.39,22.58
		c1.33,7.26-0.31,14.44-4.13,20.49c-2.55,4.04-6.73,7.34-10.77,10.12c-20.77,14.3-50.95,16.86-74.9,1.62
		c-1.69-1.07-3.05-2.67-4.56-4.02c1.01,0.38,2.09,0.62,3.02,1.15c24.99,14.3,57.14,10.47,79.28-8.75
		c5.84-5.07,7.68-12.49,7.82-19.94c0.23-12.56-3.02-24.4-8.8-35.55C162.82,325.29,162.52,324.25,162.13,323.25z"/>
	<path class="st11" d="M533.7,238.68c-1.54-3.42-2.64-7.13-4.71-10.2c-4.36-6.46-13.26-6.02-17.53,0.54
		c-2.76,4.24-3.18,8.86-2.43,13.74c0.41,2.67,0.51,5.38,0.75,8.07c-0.37,0.07-0.74,0.13-1.1,0.2c-0.62-2.06-1.46-4.08-1.81-6.18
		c-1.58-9.32-1.21-18.61,1.51-27.66c0.87-2.88,2.45-5.77,4.4-8.05c3.39-3.95,8.86-4.24,12.31-0.42c2.98,3.3,5.99,7.14,7.29,11.28
		c2.37,7.55,3.48,15.49,5.12,23.27c0.14,1.82,0.29,3.65,0.43,5.47c-0.03,6.65-0.06,13.3-0.09,19.96c-0.12,1.37-0.23,2.74-0.35,4.11
		c-0.04,0.85-0.08,1.7-0.12,2.54c-0.17-1.05-0.47-2.1-0.49-3.15c-0.09-5.49-0.06-10.99-0.18-16.49c-0.02-1.02-0.48-2.02-0.74-3.03
		c-0.08-0.97-0.16-1.94-0.24-2.91c-0.1-0.8-0.19-1.6-0.29-2.4c-0.28-1.7-0.55-3.41-0.83-5.11c-0.09-0.31-0.17-0.62-0.26-0.92
		c-0.08-0.42-0.17-0.85-0.25-1.27C533.95,239.6,533.83,239.14,533.7,238.68z"/>
	<path class="st12" d="M152.35,184.29c1.87,0,3.74,0,5.97,0c-0.95,3.64-2.02,7.18-2.79,10.79c-2.89,13.66-3.25,27.49-2.66,41.38
		c0.4,9.53,0.82,19.06,3.54,28.31c0.17,0.59-0.79,1.97-1.52,2.28c-5.9,2.49-11.83,4.65-18.03,0.62c-1.45-0.94-3.3-1.28-4.95-1.93
		c-5.92-2.36-7.53-1.57-6.78,4.83c1,8.54,2.98,16.97,4.56,25.44c0.18,0.96,0.5,1.9,0.75,2.85c-1.59-2.19-3.75-4.17-4.66-6.61
		c-3.28-8.79-4.99-17.96-5.2-27.35c-0.11-5.1,1.24-5.88,6.07-4.06c1.77,0.67,3.67,1.13,5.25,2.09c7.19,4.37,13.81,1.78,20.37-1.3
		c-5.07-21.46-4.73-43.02-2.35-64.63C150.41,192.72,151.53,188.52,152.35,184.29z"/>
	<path class="st13" d="M253.28,546.45c0.38,0.02,0.77,0.05,1.15,0.07c0.86,0.33,1.72,0.91,2.59,0.94c8.87,0.28,17.77,1.05,26.6,0.51
		c7.01-0.43,13.98-2.22,20.83-3.95c2.52-0.64,4.9-2.55,6.91-4.36c2.02-1.83,2.49-4.46,1.15-7.04c-1.29-2.48-2.76-4.86-6.1-4.76
		c-0.84-0.28-1.66-0.62-2.51-0.85c-4.1-1.08-8.2-2.13-12.3-3.19c0.05-0.28,0.1-0.56,0.15-0.84c1.29,0,2.6-0.11,3.88,0.02
		c8.51,0.87,16.48,3.58,23.83,7.84c8.25,4.79,8.26,11.51,0.26,16.82c-5.66,3.76-12.18,4.63-18.7,5.22
		c-12.58,1.15-25.03-0.45-37.44-2.3c-6.36-0.95-12.72-1.9-19.05-3.03c-2.03-0.36-3.95-1.31-5.93-1.99c0.23-0.37,0.47-0.74,0.7-1.1
		c0.59,0.09,1.17,0.18,1.76,0.27c0.74,0.12,1.49,0.24,2.23,0.36c0.59,0.08,1.18,0.16,1.77,0.24c0.96,0.15,1.93,0.3,2.89,0.45
		c0.59,0.07,1.19,0.13,1.78,0.2C250.91,546.14,252.09,546.3,253.28,546.45z"/>
	<path class="st14" d="M278.6,156.04c1.52,8.03,0.19,15.86-1.98,23.55c-0.7,2.47-2.03,5.02-3.77,6.88
		c-4.87,5.21-12.23,4.51-16.34-1.3c-3.92-5.53-5.62-11.93-5.7-18.53c-0.19-14.84,0.11-29.68,0.21-44.39
		c0.99-0.12,1.06-0.13,1.12-0.14c-0.04,0.07-0.07,0.14-0.11,0.21c2.58,0.74,1.86,2.81,1.86,4.59c0.03,10.2-0.18,20.42,0.18,30.61
		c0.19,5.57,1.72,10.94,6.38,14.76c1.74,1.08,3.41,2.89,5.25,3.09c5.06,0.55,10.52-5.19,11.14-10.77
		C277.15,161.72,277.99,158.89,278.6,156.04z"/>
	<path class="st15" d="M91.37,160.47c-2.56,2.25-5.55,4.16-7.6,6.8c-7.33,9.44-14.94,18.75-21.31,28.82
		c-7.48,11.83-10.92,25.01-7.28,39.08c1.07,4.12,3.34,7.93,5.05,11.89c0.6,1.39,1.16,2.8,1.74,4.19
		c-3.12-5.14-6.78-10.04-9.25-15.48c-6.55-14.43-3.11-28.42,3.74-41.61c6.69-12.88,15.88-24.1,25.78-34.68
		C86.67,154.76,87.55,154.93,91.37,160.47z"/>
	<path class="st16" d="M478.29,128.62c-0.08-0.43-0.16-0.86-0.24-1.3c0.47,0,0.93,0,1.4,0.01c0.89,3.54,1.77,7.08,2.66,10.62
		c0.64,2.08,1.1,4.23,1.94,6.22c2.77,6.53,5.39,13.15,8.63,19.44c2.47,4.81,6.31,8.76,11.72,10.28c1.68,0.47,4.49-0.18,5.61-1.4
		c1.17-1.27,0.92-3.84,1.29-5.84c0-0.88,0.13-1.79-0.04-2.64c-0.67-3.56-1.44-7.09-1.69-10.74c4.01,9.48,6.23,19.34,5.17,29.63
		c-0.67,6.48-6.86,8.96-11.67,4.51c-3.83-3.54-7.3-7.8-9.84-12.35c-5.86-10.49-9.03-22.05-11.88-33.67
		c-0.88-3.59-1.72-7.19-2.58-10.79C478.61,129.94,478.45,129.28,478.29,128.62z"/>
	<path class="st7" d="M221.98,190.73c-5.02,13.11-9.99,26.24-19.13,37.24c-7.54,9.08-16.74,13.72-28.69,10.53
		c-3.66-0.97-7.38-2.25-9.4-5.98c1.68,0.5,3.34,1.07,5.04,1.48c10.61,2.56,19.47-0.5,26.74-8.48c9.62-10.57,14.98-23.47,19.96-36.57
		c0.73-1.91,1.49-3.81,2.24-5.71c0.31,0.01,0.61,0.02,0.92,0.03c0.33,1.66,0.58,3.34,1.03,4.97
		C220.94,189.11,221.54,189.9,221.98,190.73z"/>
	<path class="st16" d="M486.74,458.81c0.41,0.02,0.82,0.04,1.23,0.07c0.06,0.19,0.12,0.37,0.17,0.56c-0.92,0.5-1.87,0.94-2.75,1.5
		c-10.48,6.66-21.17,13.02-31.32,20.15c-4.25,2.98-7.78,7.29-10.87,11.55c-3.08,4.23-0.91,8.32,4.17,9.19
		c1.3,0.11,2.7,0.57,3.87,0.24c2.3-0.65,4.43-1.84,6.7-2.6c0.83-0.28,1.85,0.03,2.78,0.06c-6.44,3.9-13.47,6-20.91,6.83
		c-3.79,0.42-7.22-0.43-9.86-3.43c-1.14-4.61,0.81-8.22,3.85-11.38c2.07-2.16,4.18-4.32,6.5-6.19
		C454.38,474.04,470.65,466.58,486.74,458.81z"/>
	<path class="st17" d="M56.5,322.72c-0.26,2.29-0.55,4.57-0.76,6.87c-1.57,16.52,0.86,32.71,4.27,48.78
		c3.74,17.64,9.78,34.49,18.11,50.51c0.29,0.55,0.34,1.23,0.51,1.84c-1.27-1.6-2.8-3.06-3.78-4.82
		c-9.47-17.03-16.06-35.2-19.51-54.32c-2.24-12.41-3.68-25.05-4.3-37.65c-0.43-8.75,1.15-17.6,1.83-26.41
		c0.43-0.04,0.86-0.08,1.29-0.12c0.28,1.46,0.6,2.9,0.82,4.37C55.5,315.42,55.99,319.07,56.5,322.72z"/>
	<path class="st6" d="M89.91,214.76c1.58-2.33,3.15-4.67,4.73-7c0.3,0.07,0.61,0.14,0.91,0.21c-0.45,7.78-0.22,15.68-1.5,23.33
		c-2.58,15.4-5.93,30.68-9.11,45.98c-0.31,1.49-1.6,2.77-2.43,4.15c-0.94,0.71-1.87,1.43-3,2.29c-1.74-0.99-2.73-2.4-1.75-4.48
		c5.01-10.53,6.79-21.92,8.72-33.24c1.58-9.25,2.75-18.57,4.01-27.88C90.63,217.05,90.12,215.88,89.91,214.76z"/>
	<path class="st6" d="M552.75,279.36c-10.99,15.75-21.98,31.5-33.29,47.7c0-4.38,0-8.36,0-12.35c0.92-0.76,2.07-1.36,2.72-2.3
		c8.78-12.57,17.48-25.19,26.22-37.78c0.62-0.89,1.35-1.71,2.53-3.2C551.64,274.52,552.19,276.94,552.75,279.36z"/>
	<path class="st15" d="M385.97,468.21c-7.99-1.19-15.99-2.36-23.98-3.59c-4.77-0.74-6.03,0.05-7.38,4.78
		c-3.04,10.56-3.81,21.37-3.48,32.29c-3.35-1.1-4.45-3.56-4.52-6.91c-0.19-10.04,0.89-19.92,3.49-29.62
		c1.39-5.19,2.45-5.93,7.75-5.05c8.51,1.42,17.01,2.96,25.52,4.42C385.51,464.9,386.52,465.98,385.97,468.21z"/>
	<path class="st15" d="M132.58,322.08c-7.87-1.21-15.75-2.37-23.61-3.65c-5.46-0.89-6.95-0.34-7.93,5.19
		c-1.56,8.8-2.51,17.71-3.67,26.59c-0.2,1.53-0.15,3.08-0.21,4.63c-2.99-0.31-3.78-2.52-3.9-4.94c-0.54-10.96,0.67-21.74,3.71-32.29
		c0.72-2.5,1.97-4.64,5.12-4.12c9.19,1.53,18.37,3.14,27.55,4.7C131.86,318.57,132.99,319.72,132.58,322.08z"/>
	<path class="st17" d="M285.57,178.21c-4.02,2.1-5.07,5.95-4.87,9.87c0.52,10.28,1.48,20.53,2.28,30.79
		c0.05,0.64,0.16,1.28,0.32,2.63c-5.66-4.86-11.53-8.02-18.36-9.22c-9.38-1.64-16.92,3.06-18.08,11.58
		c-0.32,2.38,0.05,4.85,0.14,7.28c0.04,0.98,0.17,1.96,0.25,2.94c-0.38,0.6-0.77,1.2-1.58,2.48c-1.26-7.08-2.79-13.46-0.78-19.94
		c1.55-5,6.66-8.33,12.79-8.46c7.28-0.15,13.67,2.52,19.46,6.78c0.88,0.65,1.82,1.24,2.72,1.85c0.13,0.13,0.25,0.25,0.38,0.38
		c-0.02-0.23-0.05-0.46-0.07-0.69c-0.78-8.47-1.66-16.94-2.28-25.43c-0.23-3.18,0.04-6.42,0.31-9.61c0.11-1.28,0.54-2.7,1.29-3.71
		c0.92-1.23,2.32-2.09,3.52-3.11C283.87,175.81,284.72,177.01,285.57,178.21z"/>
	<path class="st17" d="M329.18,95.43c-0.97-0.47-2.01-0.83-2.89-1.44c-19.75-13.5-41.48-23.08-63.49-32.11
		c-1.84-0.75-3.78-1.31-5.71-1.8c-4.42-1.13-5.68,0.15-4.16,4.56c1.34,3.87,3.03,7.63,4.69,11.38c1.51,3.41,3.19,6.75,4.8,10.12
		c-0.5-0.39-1.21-0.67-1.46-1.18c-4.23-8.51-8.61-16.96-12.49-25.64c-1.67-3.72-0.15-5.29,3.65-3.95
		c7.51,2.65,14.93,5.61,22.27,8.73c18.51,7.88,36.37,16.98,52.58,29.04C327.81,93.78,328.45,94.67,329.18,95.43z"/>
	<path class="st15" d="M399.89,75.41c-4.66-2.69-9.37-5.31-13.98-8.08c-13.63-8.19-28.32-13.66-43.78-17.07
		c-7.27-1.61-8.31-0.54-5.57,6.29c2.79,6.98,6.26,13.69,9.43,20.52c0.45,0.98,0.86,1.98,1.29,2.98c-1.59-2.06-3.56-3.93-4.72-6.21
		c-3.69-7.32-7.1-14.78-10.55-22.22c-0.46-0.99-0.63-2.12-0.85-3.2c-0.65-3.22-0.16-3.9,3.17-3.25c5,0.97,10,2.05,14.88,3.49
		c17.85,5.28,33.98,14.03,49.01,24.9C398.87,74.02,399.33,74.78,399.89,75.41z"/>
	<path class="st16" d="M83.7,292.87c1.68,1.53,3.36,3.07,5.23,4.78c-0.72,0.28-1.09,0.57-1.27,0.48c-9.23-4.99-19.64-6.1-29.52-8.91
		c-5.85-1.67-10.5-4.58-13.71-9.75c0.81-0.22,1.66-0.73,2.43-0.63c10.54,1.43,20.59,4.25,29.59,10.2
		C78.73,290.53,81.28,291.6,83.7,292.87z"/>
	<path class="st17" d="M306.4,527.85c3.35-0.1,4.82,2.28,6.1,4.76c1.34,2.58,0.87,5.21-1.15,7.04c-2.01,1.81-4.38,3.73-6.91,4.36
		c-6.85,1.73-13.82,3.52-20.83,3.95c-8.82,0.54-17.73-0.23-26.6-0.51c-0.87-0.03-1.73-0.61-2.59-0.94c2.63,0.02,5.27-0.03,7.9,0.08
		c11.56,0.49,23.02-0.15,34.24-3.18c1.6-0.43,3.17-1,4.67-1.7C308.4,538.4,309.69,534.86,306.4,527.85z"/>
	<path class="st18" d="M486.74,458.81c-16.09,7.77-32.36,15.23-46.42,26.54c-2.32,1.87-4.43,4.03-6.5,6.19
		c-3.04,3.16-4.99,6.77-3.85,11.38c-2.75-1.97-3.73-4.63-1.62-7.64c2.77-3.94,5.8-8.12,9.68-10.76
		c10.33-7.03,21.12-13.4,31.86-19.79c4.46-2.65,9.28-4.73,13.97-6.98C485.02,457.2,486.46,456.63,486.74,458.81z"/>
	<path class="st6" d="M331.13,391.01c1.11,0.79,2.79,1.35,3.2,2.4c0.94,2.44,1.56,5.09,1.78,7.71c0.82,9.45,1.47,18.92,5,27.88
		c-2.13-3.65-4.99-7.07-6.21-11c-1.57-5.03-1.89-10.45-2.61-15.73C331.79,398.53,331.51,394.76,331.13,391.01z"/>
	<path class="st15" d="M83.7,292.87c-2.42-1.27-4.97-2.34-7.23-3.84c-9-5.95-19.06-8.77-29.59-10.2c-0.77-0.1-1.62,0.4-2.43,0.63
		c-1.43-1.4-2.85-2.81-4.78-4.7c1.46-0.31,2.07-0.61,2.62-0.53c10.49,1.48,20.54,4.22,29.51,10.17c3.03,2.01,6.25,3.75,9.29,5.76
		C82.11,290.83,82.84,291.95,83.7,292.87z"/>
	<path class="st19" d="M502.06,402.11c1.52-2.03,3.04-4.06,4.55-6.1c-2.94,18.03-6.17,36-10.81,53.67
		c-0.32-0.03-0.64-0.05-0.97-0.08c0.1-1.07,0.12-2.14,0.31-3.19c2.41-13.55,4.87-27.1,7.24-40.66
		C502.59,404.59,502.18,403.32,502.06,402.11z"/>
	<path class="st7" d="M511.29,166.65c-0.37,2-0.12,4.57-1.29,5.84c-1.12,1.22-3.93,1.87-5.61,1.4c-5.4-1.52-9.24-5.47-11.72-10.28
		c-3.24-6.29-5.86-12.91-8.63-19.44c-0.84-1.99-1.31-4.14-1.94-6.22c0.64,1.11,1.35,2.18,1.91,3.32
		c3.47,7.02,6.75,14.14,10.47,21.03c1.1,2.03,3.28,3.59,5.22,5.03C504.52,170.9,507.02,170.68,511.29,166.65z"/>
	<path class="st12" d="M393.3,408.07c0.99-3.92,1.97-7.84,2.8-11.13c1.44,7.16,2.56,14.97,4.67,22.5c1.49,5.34,4.31,10.3,6.54,15.44
		c-3.26-5.44-6.72-10.78-9.68-16.38c-1.43-2.69-1.87-5.9-2.88-8.83C394.52,409.04,393.79,408.6,393.3,408.07z"/>
	<path class="st17" d="M249.96,315.31c-0.64,3.67-1.27,7.34-1.91,11.01c-0.86,4.9-5.03,6.15-8.79,7.5c-2.49,0.9-5.26,0.76-6.79-2.22
		c2.55-0.51,5.25-0.66,7.62-1.62c3.76-1.51,6.36-4.05,6.28-8.7c-0.05-2.87,0.77-5.75,1.19-8.62c0.28-0.02,0.56-0.03,0.85-0.05
		C248.93,313.51,249.45,314.41,249.96,315.31z"/>
	<path class="st12" d="M278.6,156.04c-0.6,2.85-1.44,5.67-1.76,8.55c-0.62,5.58-6.08,11.32-11.14,10.77
		c-1.84-0.2-3.5-2.01-5.25-3.09c8.65,1.66,14.47-2.89,15.19-11.82c0.2-2.41,0.56-4.8,0.94-8.07
		C277.54,154.13,278.07,155.09,278.6,156.04z"/>
	<path class="st20" d="M535.95,252.68c0.26,1.01,0.72,2.02,0.74,3.03c0.11,5.49,0.09,10.99,0.18,16.49c0.02,1.05,0.32,2.1,0.49,3.15
		c-0.2,3.16-0.39,6.32-0.59,9.47c-0.39-0.01-0.78-0.02-1.16-0.03C534.38,274.11,536.27,263.38,535.95,252.68z"/>
	<path class="st21" d="M460.73,499.52c-0.93-0.04-1.95-0.34-2.78-0.06c-2.27,0.76-4.41,1.95-6.7,2.6c-1.17,0.33-2.57-0.13-3.87-0.24
		c3.19-1.45,6.3-3.13,9.6-4.24c1.26-0.42,2.96,0.47,4.46,0.77C461.2,498.74,460.97,499.13,460.73,499.52z"/>
	<path class="st22" d="M479.45,127.33c-0.47,0-0.93,0-1.4-0.01c-0.44-3.14-0.88-6.27-1.31-9.41c0.24-0.05,0.47-0.11,0.71-0.16
		C478.12,120.95,478.78,124.14,479.45,127.33z"/>
	<path class="st17" d="M239.29,544.46c-0.23,0.37-0.47,0.74-0.7,1.1c-1.41-0.49-2.82-0.99-4.23-1.48c0.08-0.28,0.16-0.56,0.23-0.83
		C236.15,543.65,237.72,544.06,239.29,544.46z"/>
	<path class="st17" d="M253.28,546.45c-1.18-0.16-2.37-0.31-3.55-0.47C250.91,546.14,252.09,546.3,253.28,546.45z"/>
	<path class="st20" d="M537.92,248.74c-0.14-1.82-0.29-3.65-0.43-5.47C537.64,245.1,537.78,246.92,537.92,248.74z"/>
	<path class="st17" d="M247.94,545.78c-0.96-0.15-1.93-0.3-2.89-0.45C246.02,545.48,246.98,545.63,247.94,545.78z"/>
	<path class="st15" d="M402.19,77.12c-0.76-0.56-1.52-1.12-2.28-1.68C400.68,76,401.44,76.56,402.19,77.12z"/>
	<path class="st17" d="M331.48,97.14c-0.76-0.56-1.51-1.13-2.27-1.69C329.97,96.02,330.72,96.58,331.48,97.14z"/>
	<path class="st20" d="M537.48,272.81c0.12-1.37,0.23-2.74,0.35-4.11C537.71,270.07,537.6,271.44,537.48,272.81z"/>
	<path class="st20" d="M535.42,247.37c0.1,0.8,0.19,1.6,0.29,2.4C535.61,248.97,535.51,248.17,535.42,247.37z"/>
	<path class="st17" d="M243.28,545.09c-0.74-0.12-1.49-0.24-2.23-0.36C241.79,544.85,242.53,544.97,243.28,545.09z"/>
	<path class="st15" d="M61.99,251.28c0.44,0.65,0.88,1.31,1.32,1.96C62.87,252.59,62.43,251.94,61.99,251.28z"/>
	<path class="st15" d="M404.09,78.58c-0.5-0.39-1-0.79-1.5-1.18C403.09,77.8,403.59,78.19,404.09,78.58z"/>
	<path class="st7" d="M81.98,389.31c-0.52-0.36-1.03-0.72-1.55-1.08C80.94,388.6,81.46,388.96,81.98,389.31z"/>
	<path class="st15" d="M63.33,253.28c0.36,0.51,0.73,1.03,1.09,1.54C64.06,254.31,63.7,253.79,63.33,253.28z"/>
	<path class="st17" d="M334.01,99.29c-0.47-0.42-0.94-0.84-1.41-1.26C333.07,98.45,333.54,98.87,334.01,99.29z"/>
	<path class="st12" d="M149.17,184.09c0.73,0.03,1.46,0.06,2.18,0.09C150.62,184.15,149.9,184.12,149.17,184.09z"/>
	<path class="st22" d="M478.29,128.62c0.16,0.66,0.31,1.32,0.47,1.98C478.61,129.94,478.45,129.28,478.29,128.62z"/>
	<path class="st20" d="M533.7,238.68c0.13,0.46,0.25,0.93,0.38,1.39C533.95,239.6,533.83,239.14,533.7,238.68z"/>
	<path class="st20" d="M534.33,241.34c0.09,0.31,0.17,0.62,0.26,0.92C534.5,241.95,534.42,241.65,534.33,241.34z"/>
	<path class="st6" d="M115.36,469.4c0.13,0.29,0.27,0.57,0.4,0.86C115.63,469.98,115.49,469.69,115.36,469.4z"/>
	<path class="st23" d="M139.85,145.99c0.35-0.5,0.62-1.09,1.06-1.48c15.96-14.07,34.84-23.05,54.27-31.05
		c0.89-0.37,1.83-0.62,2.74-0.92c-0.59,1.02-1.08,2.13-1.79,3.05c-8.85,11.52-17.7,23.04-26.68,34.46c-0.69,0.88-2.5,1.55-3.61,1.34
		C157.15,149.72,148.51,147.82,139.85,145.99z"/>
	<path class="st12" d="M139.85,145.99c8.66,1.83,17.31,3.73,26,5.4c1.1,0.21,2.91-0.46,3.61-1.34
		c8.98-11.42,17.83-22.94,26.68-34.46c0.71-0.93,1.2-2.03,1.79-3.05c3.41-1.13,6.81-2.26,10.22-3.39c0.2,0.24,0.4,0.49,0.6,0.73
		c-2.68,3.38-5.38,6.74-8.03,10.15c-8.9,11.46-17.77,22.96-26.71,34.39c-0.6,0.76-1.73,1.69-2.54,1.62
		c-10.88-0.89-21.46-3.17-31.54-7.48C138.21,147.83,137.82,146.91,139.85,145.99z"/>
	<path class="st1" d="M445.3,295.95c-1.18,5.37-2.55,10.7-3.51,16.11c-2.82,15.84-5.07,31.75-3.76,47.91
		c0.53,6.6,2.46,12.83,6.06,18.45c0.62,0.97,1.6,1.7,2.41,2.54c1.94,2.33,3.87,4.66,5.81,6.98c-1,0.74-1.91,1.73-3.03,2.2
		c-11.16,4.64-22.49,6.04-34.06,1.48c-8.65-7.08-12.16-16.64-13.16-27.39c-0.37-4.01-0.68-8.03-1.01-12.04
		c-0.42-0.05-0.83-0.1-1.25-0.14c-0.59,1.57-1.19,3.13-1.78,4.7c-0.67-3.03-1.33-6.06-2-9.09c-0.31,0-0.62,0.01-0.94,0.01
		c-0.57,1.86-1.24,3.7-1.7,5.6c-1.17,4.84-1.93,9.81-3.43,14.55c-4.25,13.41-10.92,19.05-26.7,19.01
		c-4.24-0.01-8.47-2.09-12.71-3.22c-5.22-3.7-5.62-9.45-6.55-15.06c-1.12-6.76-2.42-13.49-4-20.15c-0.38-1.63-2.12-2.94-3.24-4.4
		c-1.64-1.77-3.28-3.55-4.91-5.32c8.75-1.73,17.54-3.34,26.25-5.24c5.72-1.24,11.36-2.9,17.03-4.38c-0.44,1.59-0.91,3.17-1.32,4.77
		c-1.34,5.24-2.67,10.48-4,15.72c-0.1,0.41-0.2,0.82-0.29,1.24c-0.11,0.49-0.21,0.98-0.32,1.46c-0.14,0.62-0.27,1.24-0.41,1.86
		c-0.08,0.45-0.16,0.91-0.25,1.36c-0.1,0.54-0.2,1.08-0.31,1.62c-0.09,0.57-0.17,1.13-0.26,1.7c-0.05,0.37-0.1,0.74-0.14,1.12
		c-0.07,0.53-0.15,1.05-0.22,1.58c0.09,3.63-0.18,7.32,0.36,10.88c0.91,5.98,5.64,7.82,10,3.73c6.25-5.86,9.51-13.36,10.04-21.97
		c-0.11-0.86-0.23-1.72-0.34-2.58c-0.34-0.03-0.68-0.05-1.01-0.08c-0.46,2.22-0.93,4.44-1.39,6.66c-0.1,0.36-0.2,0.71-0.31,1.07
		c-4.02,5.86-6.48,6.29-12.19,2.15c-0.14-0.37-0.28-0.73-0.42-1.1c-0.09-0.29-0.18-0.57-0.27-0.86c0.68-6.38,1.36-12.77,2.04-19.15
		c0.17-0.72,0.35-1.43,0.52-2.15c0.1-0.17,0.14-0.35,0.11-0.55c0.9-2.89,3.24-5.5,1.77-8.86l0.1-0.04c0.47-0.18,0.93-0.35,1.4-0.53
		c19.32-5.77,37.96-13.17,55.16-23.83c3.29-2.04,6.3-4.54,9.47-6.79C443.47,296.88,444.41,296.45,445.3,295.95z"/>
	<path class="st1" d="M461.32,340.16c-9.79-9.16-8.19-8.41-2.04-16.83c7.15-9.79,15.64-18.19,27.32-22.59
		c6.71-2.53,13.48-0.95,17.6,3.9c1.86,7.14,3.72,14.27,5.59,21.4c0.57,2.18,0,3.82-1.93,5.14c-2.56,1.75-4.91,3.81-7.48,5.55
		c-8.21,5.56-17.02,9.3-27.17,7.28C469.15,343.2,465.28,341.47,461.32,340.16z"/>
	<path class="st12" d="M461.32,340.16c3.96,1.31,7.83,3.04,11.89,3.85c10.16,2.02,18.97-1.72,27.17-7.28
		c2.57-1.74,4.92-3.79,7.48-5.55c1.93-1.32,2.5-2.96,1.93-5.14c-1.87-7.13-3.73-14.27-5.59-21.4c5.08,4.19,7.11,10.12,8.26,16.16
		c2.94,15.44,3.97,12.18-8.28,20.88c-9.59,6.81-20.21,9.86-31.67,5.59C468.46,345.76,465.03,342.58,461.32,340.16z"/>
	<path class="st15" d="M350.54,383.6c4.24,1.13,8.47,3.21,12.71,3.22c15.78,0.05,22.45-5.59,26.7-19.01
		c1.5-4.73,2.26-9.7,3.43-14.55c0.46-1.89,1.13-3.73,1.7-5.6c0.31,0,0.62-0.01,0.94-0.01c0.67,3.03,1.33,6.06,2,9.09
		c-1.72,6.51-2.84,13.25-5.27,19.49c-4.64,11.9-16.78,17.71-29.26,14.65C358.53,389.68,353.69,388.1,350.54,383.6z"/>
	<path class="st7" d="M415.22,391.63c11.57,4.56,22.9,3.16,34.06-1.48c1.12-0.47,2.02-1.45,3.03-2.2c1.72,1.5,3.44,3.01,5.51,4.82
		c-7.62,4.01-15.34,6.1-23.69,6.18c-6.17,0.06-11.9-1.08-16.86-4.92C416.46,393.4,415.9,392.44,415.22,391.63z"/>
	<path class="st24" d="M376.52,328.66c1.47,3.37-0.87,5.97-1.77,8.86c-0.13-0.33-0.26-0.66-0.75-1.93c0,1.5,0,2.01,0,2.51l0.03-0.03
		c-0.59,1.25-1.3,2.46-1.76,3.76c-0.89,2.54-1.65,5.13-2.46,7.7c1.33-5.24,2.66-10.48,4-15.72c0.41-1.6,0.88-3.18,1.32-4.77
		C375.59,328.92,376.05,328.79,376.52,328.66z"/>
	<path class="st24" d="M378.02,328.08c-0.47,0.18-0.93,0.35-1.4,0.53C377.08,328.44,377.55,328.26,378.02,328.08z"/>
	<path class="st1" d="M445.32,295.32c0.14,0.2,0.27,0.4,0.41,0.59c-0.16,0.03-0.31,0.06-0.47,0.1c-0.04-0.16-0.11-0.32-0.12-0.48
		C445.13,295.46,445.25,295.39,445.32,295.32z"/>
	<path class="st1" d="M280.18,216.48c0.02,0.23,0.05,0.46,0.07,0.69c-0.13-0.13-0.25-0.25-0.38-0.38
		C279.98,216.69,280.08,216.59,280.18,216.48z"/>
	<path class="st13" d="M369.81,349.54c0.81-2.57,1.57-5.16,2.46-7.7c0.46-1.3,1.16-2.51,1.76-3.76c0.03,0.72,0.06,1.43,0.09,2.15
		c-0.68,6.38-1.36,12.77-2.04,19.15c0.09,0.29,0.18,0.57,0.27,0.86c0.14,0.37,0.28,0.73,0.42,1.1c0.54,3.68,2.77,5.68,6.12,5.5
		c3.66-0.2,5.89-3.01,6.06-7.65c0.1-0.36,0.2-0.71,0.31-1.07c0.92-1.33,1.83-2.67,2.75-4c-0.54,8.61-3.79,16.11-10.04,21.97
		c-4.36,4.09-9.09,2.25-10-3.73c-0.54-3.56-0.27-7.25-0.36-10.88c0.07-0.53,0.15-1.05,0.22-1.58c0.05-0.37,0.1-0.74,0.14-1.12
		c0.09-0.57,0.17-1.13,0.26-1.7c0.1-0.54,0.2-1.08,0.31-1.62c0.08-0.45,0.16-0.91,0.25-1.36c0.14-0.62,0.27-1.24,0.41-1.86
		c0.11-0.49,0.21-0.98,0.32-1.46C369.61,350.37,369.71,349.95,369.81,349.54z"/>
	<path class="st18" d="M384.96,359.18c-0.17,4.64-2.4,7.46-6.06,7.65c-3.35,0.18-5.58-1.83-6.12-5.5
		C378.48,365.48,380.94,365.04,384.96,359.18z"/>
	<path class="st18" d="M388.01,354.12c-0.91,1.33-1.83,2.67-2.75,4c0.46-2.22,0.93-4.44,1.39-6.66c0.34,0.03,0.68,0.05,1.01,0.08
		C387.78,352.4,387.9,353.26,388.01,354.12z"/>
	<path class="st24" d="M368.78,354.11c-0.08,0.45-0.16,0.91-0.25,1.36C368.62,355.01,368.7,354.56,368.78,354.11z"/>
	<path class="st24" d="M369.51,350.78c-0.11,0.49-0.21,0.98-0.32,1.46C369.3,351.76,369.41,351.27,369.51,350.78z"/>
	<path class="st24" d="M368.23,357.08c-0.09,0.57-0.17,1.13-0.26,1.7C368.05,358.22,368.14,357.65,368.23,357.08z"/>
	<path class="st24" d="M374.12,340.22c-0.03-0.72-0.06-1.43-0.09-2.15c0,0-0.03,0.03-0.03,0.03l0.32,0.01l0.32-0.05
		C374.47,338.79,374.29,339.5,374.12,340.22z"/>
	<path class="st13" d="M374.64,338.07l-0.32,0.05l-0.32-0.01c0-0.5,0-1.01,0-2.51c0.49,1.27,0.62,1.6,0.75,1.93
		C374.78,337.72,374.74,337.9,374.64,338.07z"/>
	<path class="st24" d="M367.82,359.9c-0.07,0.53-0.15,1.05-0.22,1.58C367.68,360.95,367.75,360.43,367.82,359.9z"/>
	<path class="st18" d="M372.35,360.24c-0.09-0.29-0.18-0.57-0.27-0.86C372.17,359.66,372.26,359.95,372.35,360.24z"/>
</g>
</svg>
