<?xml version="1.0" encoding="UTF-8"?>
<svg id="Layer_1" data-name="Layer 1" xmlns="http://www.w3.org/2000/svg" viewBox="0 0 1000 1000">
  <defs>
    <style>
      .cls-1 {
        fill: #fff;
        stroke: #fff;
        stroke-miterlimit: 10;
        stroke-width: 4px;
      }

      .cls-2 {
        fill: #231f20;
      }
    </style>
  </defs>
  <circle class="cls-1" cx="500" cy="500" r="475"/>
  <g>
    <path class="cls-2" d="M287.28,794.03l29.01-38.81,270.17-361.48c.11,0,.22,0,.33,0-.03-.08-.07-.16-.1-.24-40.65-93.86-86.72-200.75-95.94-221.06-5.93-12.32-8.57-17.51-17.14-17.51-5.93,0-10.54,6.49-17.14,22.05l-151.63,346.98c-11.87,27.89-21.76,44.75-48.12,48.64-5.27,0-11.87,.64-17.14,.64-4.62,0-6.59,2.59-6.59,5.84,0,4.54,3.3,5.84,10.55,5.84,30.32,0,61.31-1.94,67.24-1.94,18.46,0,45.49,1.94,64.61,1.94,5.93,0,9.23-1.29,9.23-5.84,0-3.24-1.32-5.84-8.57-5.84h-8.57c-17.8,0-23.07-5.84-23.07-15.56,0-6.49,2.64-20.11,8.57-33.73l30.99-73.94c1.32-3.24,1.98-3.89,5.27-3.89h125.55s-204.48,304.57-204.48,304.57l-27.11,40.38-10.76,16.02-30.71,45.75-10.75,16.01-3.31,4.93,3.55-4.75,11.54-15.44,32.98-44.12,11.55-15.45Zm225.93-384.39h-119.83c-2.11,0-3.53-1.38-2.11-4.16l59.91-149.1c.71-2.08,1.41-5.55,3.53-5.55,1.41,0,2.12,3.46,2.82,5.55l58.51,149.79c.71,2.08,0,3.46-2.82,3.46Z"/>
    <path class="cls-2" d="M572.06,842.97c106.8,0,154.26-60.97,154.26-119.99,0-64.86-59.33-104.41-106.8-119.33,32.97-20.75,65.27-53.83,65.27-96.64,0-21.27-9.87-55.24-55.75-72.13l102.39-178.43,17.61-30.69,9.77-17.03,27.84-48.52,9.72-16.95,.52-.9-.58,.85-10.91,16-31.17,45.7-10.93,16.02-20.03,29.37-146.2,214.37c23.06,16.05,42.43,42.79,42.43,68.29s-11.21,46.7-26.37,58.37c-9.89,7.78-26.37,9.72-45.49,9.72-4.26,0-7.99-.07-11.32-.21-7-.28-12.13-.85-15.7-1.73-1.98-.65-3.95-1.29-3.95-5.84v-9.06l-.7-35.68-73.24,100.88-1.21,32.07c0,50.59,0,94.05-2.64,117.39-1.98,16.21-5.27,26.59-17.14,29.18-5.27,1.3-11.87,1.94-20.44,1.94-7.25,0-9.23,3.24-9.23,5.84,0,3.89,3.96,5.84,11.21,5.84,11.87,0,26.37-.64,40.22-1.29,13.84,0,26.37-.65,32.96-.65,9.23,0,29.66,.65,49.45,1.3,19.77,1.29,39.55,1.94,46.14,1.94Zm-55.08-203.89c0-3.47,1.41-4.16,3.52-4.16h26.79c23.97,0,40.88,6.24,53.58,15.26,46.52,31.21,58.5,77.67,58.5,104.72,0,65.19-42.99,83.22-76.13,83.22-14.1,0-28.19-.69-44.41-6.94-19.74-7.63-21.85-19.42-21.85-58.25v-133.84Z"/>
    <path class="cls-2" d="M114.41,498.96c0-211.48,174.88-383.53,389.84-383.53,88.05,0,169.35,28.9,234.68,77.52l31.07-45.55c-74.24-54.46-166.23-86.75-265.75-86.75-245.67,0-445.53,196.63-445.53,438.32,0,138.3,65.49,261.79,167.51,342.18l30.81-45.89c-87.02-70.4-142.63-177.06-142.63-296.29Z"/>
    <g>
      <path class="cls-2" d="M794.09,222.95c-.24-.26-.43-.27-.84-.09l-9.94,3.95c-1.76,.66-3.24,1.53-3.86,2.1-.93,.85-1.18,1.93,.28,3.53l.71,.78c.57,.62,.6,.87,.29,1.15-.41,.38-.8,.16-1.32-.41-1.51-1.66-3.38-4.02-4.84-5.63-.52-.57-3.27-3.27-5.72-5.96-.61-.67-.79-1.08-.38-1.45,.31-.28,.6-.17,.98,.24,.42,.47,1.14,1.14,1.56,1.51,2.48,2.1,5.13,1.48,8.66,.16l44.33-16.61c2.07-.75,2.92-.95,3.39-.44,.42,.47,.24,1.2-.48,2.8-1.71,3.83-15.28,31.34-20.13,41.82-2.87,6.21-2.22,8.37-1.49,9.69,.55,.92,1.21,1.74,1.77,2.36,.38,.41,.56,.72,.2,1.05-.41,.38-.94,0-2.69-1.91-1.7-1.86-5.14-5.64-8.8-9.87-.8-.98-1.36-1.6-1-1.93,.31-.28,.6-.17,1.13,.3,.43,.27,1.23,.21,1.61-.62l7.2-14.13c.17-.34,.13-.59-.11-.85l-10.51-11.54Zm12.2,8.2c.24,.26,.44,.17,.55-.02l8.54-16.3c.16-.24,.37-.53,.23-.68-.14-.15-.49-.02-.75,.11l-17.06,6.83c-.25,.14-.36,.33-.17,.54l8.67,9.52Z"/>
      <path class="cls-2" d="M866.6,296.41c9.42-4.94,11.16-5.86,13.08-7.02,2.04-1.23,2.77-2.25,2.13-4.52-.14-.56-.63-1.65-1.08-2.51-.36-.68-.43-1.12,0-1.35,.43-.23,.79,.14,1.27,1.07,1.72,3.29,3.59,7.29,4.24,8.53,1.59,3.04,3.05,5.36,4.16,7.46,5.89,11.22,.92,16.36-2.37,18.08-5.08,2.67-9.65,1.35-14.16-.63,.93,5.99-.22,14.5-7.47,18.31-6.63,3.48-16.21,1.95-22.2-9.46-.39-.74-1.21-2.61-2.09-4.44-.85-1.92-1.77-3.82-2.25-4.75-.36-.68-1.07-2.05-1.92-3.5-.75-1.43-1.72-2.97-2.37-4.21-.42-.81-.46-1.34-.03-1.56,.31-.16,.63-.01,1.02,.73,.49,.93,1,1.61,1.42,2.1,.9,1.11,2.42,.7,4.35,0,2.77-1.06,7.66-3.63,13.37-6.62l10.91-5.73Zm2.19,18.77c.25-1.79-.07-3.44-1.21-5.93-.52-1.15-.85-1.77-1.34-2.7-.13-.25-.32-.31-.63-.14l-14.69,7.71c-4.09,2.15-5.05,2.89-4.81,5.29,.2,2.03,.88,3.49,1.63,4.92,1.46,2.79,5.42,6.72,11.87,3.34,3.84-2.02,8.37-6.05,9.18-12.49Zm.66-10.78c-.5,.26-.52,.51-.45,.79,.17,.62,.59,1.58,1.34,3.01,1.07,2.05,2.04,3.28,3.52,3.84,2.15,.93,4.87,.69,7.9-.91,4.15-2.18,8.34-7.46,5.54-12.79-.46-.87-.75-1.43-1.2-1.98-.35-.37-.66-.36-1.35,0l-15.31,8.04Z"/>
      <path class="cls-2" d="M887.41,469.21c.43-1.14,.77-1.37,2.31-1.45,3.85-.2,8.05-.13,9.18-.12,1.05,.02,1.83,.19,1.86,.75,.03,.63-.59,.73-1.15,.76-.91,.05-2.36,.4-3.53,.81-5.1,1.8-6.77,6.02-6.55,10.36,.32,6.29,4.74,9.15,8.45,8.96,3.43-.17,6.59-1.39,10.84-7.42l2.35-3.34c5.62-8,10.38-10.9,16.04-11.19,7.69-.39,13.54,5.76,14.04,15.48,.23,4.54-.32,7.52-.72,9.36-.11,.64-.3,1-.79,1.02-.91,.05-2.95-.13-8.4,.15-1.54,.08-2.11-.1-2.14-.66-.03-.49,.38-.72,1.22-.76,.63-.03,2.78-.49,4.52-2.05,1.27-1.12,3.27-3.25,3.04-7.79-.26-5.17-3.43-8.17-7.62-7.95-3.22,.16-5.58,1.9-9.69,7.92l-1.37,2.03c-5.93,8.78-10.6,12.04-17.25,12.37-4.05,.21-8.96-1.09-12.5-5.95-2.42-3.38-3.24-7.27-3.43-10.97-.21-4.06,.12-7.23,1.3-10.3Z"/>
      <path class="cls-2" d="M910.96,561.02c11.7,2.53,25.15,13.52,20.72,34.05-3.68,17.04-15.89,25.5-31.56,22.12-15.67-3.38-25.69-17-21.94-34.38,4.24-19.64,20.66-24.4,32.77-21.78Zm-11.3,46.04c15.33,3.31,26.74-3.46,29.16-14.69,1.7-7.87-.75-17.78-17.78-21.45-14.23-3.07-27.22,2.36-30.05,15.5-1.03,4.79-1.1,16.38,18.67,20.64Z"/>
      <path class="cls-2" d="M862.97,687.69c-7.95-4.13-12.23-6.36-14.03-5.64-1.48,.57-2.76,1.96-5.28,6.8-1.71,3.29-2.91,5.75-2.04,8.17,.42,1.17,1.77,2.82,2.89,3.55,.53,.35,.83,.67,.58,1.17-.23,.43-.57,.34-1.31-.05-.68-.36-5.11-3.21-6.66-4.65-1.17-1.08-1.32-1.56,.36-4.79,2.33-4.47,4.13-7.64,5.65-10.4,1.58-2.73,2.8-4.93,4.13-7.48,.36-.68,1.07-2.05,1.78-3.57,.74-1.43,1.46-3.11,2.11-4.35,.42-.81,.83-1.15,1.27-.92,.31,.16,.37,.51-.02,1.25-.49,.93-.75,1.74-.92,2.37-.4,1.37,.81,2.39,2.48,3.58,2.45,1.67,7.35,4.22,13.07,7.19l10.93,5.69c9.44,4.91,11.18,5.81,13.23,6.72,2.18,.97,3.43,.99,4.93-.83,.38-.43,.83-1.15,1.25-1.95,.36-.68,.67-.99,1.11-.76,.44,.23,.33,.73-.15,1.66-1.52,2.92-3.74,6.73-4.61,8.41-.78,1.49-2.95,6.12-4.21,8.54-.45,.87-.8,1.24-1.24,1.01-.43-.23-.37-.66,.02-1.41,.36-.68,.81-1.71,1.07-2.52,.56-1.84-.24-2.88-2.34-4.14-1.92-1.16-3.66-2.06-13.1-6.97l-10.93-5.69Z"/>
      <path class="cls-2" d="M826.68,766.2c7.89,7.14,9.34,8.46,11.09,9.86,1.86,1.49,3.06,1.83,4.98,.45,.48-.32,1.33-1.16,1.99-1.88,.52-.57,.9-.79,1.27-.46,.36,.33,.14,.79-.57,1.56-2.49,2.75-5.61,5.88-7.02,7.43-1.13,1.25-3.93,4.65-5.62,6.52-.71,.78-1.14,1.05-1.5,.72-.36-.33-.18-.73,.29-1.25,.52-.57,.75-.93,1.21-1.65,1.01-1.63,.5-2.85-1.22-4.6-1.57-1.61-3.02-2.92-10.9-10.07l-7.26-6.58c-7.52-6.82-12.05-8.18-16.43-7.52-4.04,.6-6.4,2.79-8,4.56-2.07,2.28-3.88,5.74-3.68,9.7,.27,5.44,4.8,9.82,10.14,14.66l6.49,5.88c7.89,7.14,9.34,8.46,11.09,9.86,1.86,1.49,3.06,1.83,4.98,.45,.48-.32,1.33-1.16,1.85-1.73,.52-.57,.9-.79,1.27-.46s.14,.79-.52,1.51c-2.4,2.65-5.51,5.77-5.56,5.83-.56,.62-3.37,4.03-5.2,6.05-.66,.73-1.09,1-1.45,.67-.36-.33-.18-.73,.38-1.36,.52-.57,.75-.93,1.21-1.65,1.01-1.64,.5-2.85-1.22-4.6-1.57-1.61-3.02-2.92-10.9-10.07l-5.55-5.03c-5.76-5.22-11.36-11.33-11.15-19.07,.17-6.55,2.99-10.8,6.04-14.17,2.49-2.75,7.16-7.59,14.01-8.27,4.78-.48,10.41,1.02,17.93,7.84l7.57,6.86Z"/>
      <path class="cls-2" d="M738.76,866.02l8.65-5.83c3.35-2.3,4.58-3.49,4.64-5.36,.03-1.26-.13-2.16-.31-2.71s-.16-.9,.2-1.12c.41-.26,.72-.04,1.13,.61,.6,.95,2.9,7.04,3.08,7.58,.31,.88,.36,1.35,0,1.57-.47,.3-1.44,.08-2.99,.91-1.83,.91-4.15,2.22-6.1,3.46l-23.4,14.87c-1.89,1.2-3.08,2.2-3.89,2.89-.77,.74-1.17,1.16-1.41,1.31-.41,.26-.7-.05-1.26-.94-.79-1.24-3.2-5.43-4.18-6.97-.32-.63-.42-1.06-.07-1.28,.47-.3,.78-.08,1.4,.77l.47,.61c1.09,1.46,3.74,2.1,9.07-1.12l7.56-4.55-15.4-24.22c-3.46-5.44-6.42-10.1-8.33-12.46-1.23-1.54-2.41-2.62-4.33-1.73-.9,.41-2.28,1.12-3.16,1.68-.65,.41-1.06,.42-1.25,.13-.26-.41,.1-.89,.75-1.3,3.9-2.48,7.73-4.67,9.39-5.72,1.36-.86,4.97-3.41,7.33-4.91,.77-.49,1.29-.57,1.56-.16,.19,.3,.06,.62-.65,1.07-.89,.56-1.52,1.13-1.98,1.59-1.03,.99-.56,2.51,.35,4.34,1.28,2.67,4.25,7.34,7.7,12.77l15.4,24.22Z"/>
      <path class="cls-2" d="M642.6,895.33c3.45,10.06,4.09,11.92,4.95,13.99,.91,2.21,1.95,3.1,3.52,2.94,.8-.05,1.68-.28,2.47-.55,.66-.23,1.1-.23,1.29,.3,.14,.4-.35,.71-1.41,1.07-2.52,.86-6.75,2.1-8.67,2.75-1.66,.57-5.49,2.11-8.01,2.97-.86,.29-1.44,.34-1.57-.05-.18-.53,.17-.8,.83-1.03,.66-.23,1.17-.48,1.92-.88,1.67-.94,1.82-2.25,1.15-4.61-.59-2.16-1.23-4.02-4.68-14.08l-4-11.65c-2.2-6.42-4-11.65-5.24-14.41-.81-1.72-1.68-2.75-3.76-2.34-.97,.19-2.47,.55-3.47,.89-.73,.25-1.13,.17-1.24-.17-.16-.46,.3-.84,1.03-1.09,4.37-1.5,8.61-2.73,10.4-3.35,1.52-.52,5.62-2.15,8.27-3.06,.86-.3,1.39-.26,1.55,.21,.11,.33-.08,.62-.88,.89-.99,.34-1.74,.75-2.29,1.08-1.23,.72-1.24,1.98-.78,3.97,.62,2.89,2.42,8.12,4.62,14.55l4,11.65Z"/>
      <path class="cls-2" d="M563.78,909.63c.93,11.93-5.76,27.97-26.7,29.6-17.38,1.35-28.98-7.93-30.23-23.91-1.24-15.98,8.94-29.48,26.67-30.86,20.03-1.56,29.29,12.82,30.26,25.17Zm-47.35,2.35c1.22,15.63,10.98,24.63,22.42,23.74,8.03-.62,16.82-5.8,15.47-23.18-1.13-14.52-10.05-25.41-23.45-24.37-4.89,.38-16.01,3.63-14.44,23.8Z"/>
      <path class="cls-2" d="M435.44,890.82c1.03-5.36,.53-7.33-.73-8.11-1.07-.67-2.36-1.02-3.45-1.26-.75-.17-1.13-.39-1.04-.8,.12-.55,.77-.55,1.72-.34,4.44,.97,7.13,1.78,8.43,2.06,.62,.13,3.87,.63,7.43,1.41,.89,.2,1.49,.4,1.35,1.01-.09,.41-.53,.46-1.21,.31-.89-.2-2.13-.4-3.15-.33-1.9,.16-2.61,2.08-3.98,8.01l-9.49,40.34c-.3,1.37-.71,2.28-1.4,2.13-.75-.17-1.17-1.19-2.07-2.67-.63-1.07-8.58-14.49-16.39-26.59-3.63-5.67-10.7-17.54-11.63-18.89l-.34-.08-6.04,30.85c-.85,4.19-.52,5.62,.98,6.66,.94,.63,2.58,.99,3.53,1.2,.82,.18,1.05,.44,.96,.86-.12,.55-.89,.45-1.91,.23-3.56-.78-6.79-1.7-8.23-2.02-.75-.16-3.4-.53-6.75-1.27-.89-.19-1.56-.41-1.44-.96,.09-.41,.54-.53,1.37-.35,.68,.15,1.23,.27,2.1,.25,2.03-.13,2.9-1.44,3.8-5.26l10.21-42.98c.33-1.5,.74-2.06,1.35-1.92,.75,.17,1.41,1.1,2,2.01,3.41,5.05,10.2,15.92,15.77,24.52,5.83,9.02,11.55,19.23,12.5,20.8l.21,.04,5.54-28.88Z"/>
      <path class="cls-2" d="M334.89,849.28c.76,.96,.79,1.36,.07,2.73-1.79,3.41-4,6.99-4.58,7.95-.55,.9-1.1,1.48-1.59,1.22-.56-.29-.33-.88-.07-1.38,.42-.81,.86-2.24,1.1-3.45,1.05-5.3-1.73-8.9-5.57-10.92-5.58-2.93-10.29-.59-12.02,2.69-1.6,3.04-2.17,6.37,.86,13.11l1.68,3.73c4.01,8.91,4.08,14.49,1.44,19.51-3.58,6.81-11.86,8.71-20.47,4.18-4.03-2.12-6.3-4.11-7.69-5.39-.49-.42-.7-.77-.48-1.2,.42-.81,1.62-2.47,4.16-7.3,.72-1.36,1.16-1.76,1.66-1.5,.43,.23,.42,.7,.03,1.44-.29,.56-.99,2.64-.54,4.94,.31,1.67,1.13,4.47,5.16,6.59,4.58,2.41,8.77,1.21,10.73-2.5,1.5-2.85,1.21-5.77-1.87-12.38l-1.05-2.21c-4.53-9.58-4.94-15.26-1.85-21.14,1.89-3.59,5.5-7.15,11.49-7.72,4.14-.35,7.9,.92,11.19,2.64,3.59,1.89,6.15,3.79,8.2,6.37Z"/>
    </g>
  </g>
</svg>