<?xml version="1.0" encoding="UTF-8"?>
<svg id="Layer_1" data-name="Layer 1" xmlns="http://www.w3.org/2000/svg" viewBox="0 0 1000 1000">
  <defs>
    <style>
      .cls-1 {
        fill: #fff;
        stroke: #fff;
        stroke-miterlimit: 10;
        stroke-width: 4px;
      }

      .cls-2 {
        fill: none;
      }
    </style>
  </defs>
  <circle class="cls-1" cx="500" cy="500" r="475"/>
  <g>
    <path class="cls-2" d="M697.84,830.83c-4.98,3.02-15,12.39-2.31,32.61,9.83,15.67,25.1,19.82,36.76,12.73,8.18-4.97,14.68-15.1,3.75-32.51-9.13-14.55-24.55-21.12-38.2-12.83Z"/>
    <path class="cls-2" d="M841.17,256.45c.29,.7,.94,1.76,2.04,3.31,1.58,2.22,2.9,3.52,4.75,3.96,2.68,.77,5.86,.08,9.22-2.22,4.59-3.15,8.75-9.92,4.64-15.71-.67-.94-1.1-1.55-1.71-2.13-.47-.38-.84-.32-1.6,.19l-16.92,11.62c-.55,.38-.54,.67-.42,.99Z"/>
    <path class="cls-2" d="M850.42,337.22c2.51,5.19,10.89,16.01,32.69,5.81,16.9-7.91,22.74-22.39,16.86-34.56-4.13-8.53-13.66-15.99-32.44-7.2-15.68,7.35-24,21.71-17.11,35.95Z"/>
    <path class="cls-2" d="M838.11,258.46c-.19-.27-.42-.31-.77-.07l-16.23,11.15c-4.52,3.1-5.54,4.11-4.9,6.87,.54,2.34,1.57,3.93,2.67,5.48,2.15,3.03,7.43,7.03,14.55,2.13,4.25-2.91,9-8.28,8.99-15.89,.02-2.12-.6-4-2.32-6.72-.79-1.26-1.27-1.93-1.99-2.94Z"/>
    <path class="cls-2" d="M424.24,880.47c-5.76-.98-19.58-.48-23.68,22.91-3.18,18.14,5.47,31.19,18.96,33.48,9.46,1.61,21.15-1.75,24.69-21.91,2.95-16.84-4.17-31.81-19.97-34.49Z"/>
    <path class="cls-2" d="M800.73,224c.29,.3,.52,.19,.65-.04l9.89-19.28c.19-.28,.44-.63,.26-.81-.17-.18-.59-.02-.89,.14l-20.24,8.33c-.3,.17-.43,.39-.2,.63l10.52,11.02Z"/>
    <path class="cls-2" d="M505.39,406.25l-58.51-149.79c-.7-2.08-1.41-5.55-2.82-5.55-2.11,0-2.82,3.46-3.53,5.55l-59.91,149.1c-1.41,2.77,0,4.16,2.11,4.16h119.83c2.82,0,3.53-1.38,2.82-3.46Z"/>
    <path class="cls-2" d="M528.18,831.24c16.21,6.24,30.31,6.94,44.41,6.94,33.13,0,76.13-18.03,76.13-83.22,0-27.04-11.98-73.51-58.5-104.72-12.69-9.01-29.61-15.26-53.58-15.26h-26.79c-2.11,0-3.52,.69-3.52,4.16v133.84c0,38.84,2.11,50.62,21.85,58.25Z"/>
    <path class="cls-2" d="M929.47,538.59l-19.73-9.45c-.32-.11-.58-.05-.61,.27l-1.46,15.05c-.04,.41,.2,.51,.46,.45l21.25-5.43c.34-.05,.76-.09,.79-.34,.02-.24-.38-.45-.7-.56Z"/>
    <path class="cls-2" d="M860.5,752.5c-2.22-1.75-8.02-6.04-13.3-9.95l-8.41-6.23c-7.08-5.24-12.27-8.98-13.59-9.85-1.72-1.17-4.49-3.02-5.63-3.03-1.92-.08-5.28,1.44-9.25,6.63-5.12,6.7-7.2,12.15-6.74,18.66,.46,6.92,5.53,12.73,12.4,17.82,8.48,6.28,16.61,6.85,21.51,6.05,10.5-1.69,17.02-8.59,20.94-13.71,1-1.31,2.66-3.89,2.8-4.61,.18-.79,0-1.23-.73-1.78Z"/>
    <path d="M276.64,794.1l29.01-38.81,270.17-361.48c.11,0,.22,0,.33,0-.03-.08-.07-.16-.1-.24-40.65-93.86-86.72-200.75-95.94-221.06-5.93-12.32-8.57-17.51-17.14-17.51-5.93,0-10.54,6.49-17.14,22.05l-151.63,346.98c-11.87,27.89-21.76,44.75-48.12,48.64-5.27,0-11.87,.64-17.14,.64-4.62,0-6.59,2.59-6.59,5.84,0,4.54,3.3,5.84,10.55,5.84,30.32,0,61.31-1.94,67.24-1.94,18.46,0,45.49,1.94,64.61,1.94,5.93,0,9.23-1.29,9.23-5.84,0-3.24-1.32-5.84-8.57-5.84h-8.57c-17.8,0-23.07-5.84-23.07-15.56,0-6.49,2.64-20.11,8.57-33.73l30.99-73.94c1.32-3.24,1.98-3.89,5.27-3.89h125.55s-204.48,304.57-204.48,304.57l-27.11,40.38-10.76,16.02-30.71,45.75-10.75,16.01-3.31,4.93,3.55-4.75,11.54-15.44,32.98-44.12,11.55-15.45Zm225.93-384.39h-119.83c-2.11,0-3.53-1.38-2.11-4.16l59.91-149.1c.71-2.08,1.41-5.55,3.53-5.55,1.41,0,2.12,3.46,2.82,5.55l58.51,149.79c.71,2.08,0,3.46-2.82,3.46Z"/>
    <path d="M561.41,843.05c106.8,0,154.26-60.97,154.26-119.99,0-64.86-59.33-104.41-106.8-119.33,32.97-20.75,65.27-53.83,65.27-96.64,0-21.27-9.87-55.24-55.75-72.13l102.39-178.43,17.61-30.69,9.77-17.03,27.84-48.52,9.72-16.95,.52-.9-.58,.85-10.91,16-31.17,45.7-10.93,16.02-20.03,29.37-146.2,214.37c23.06,16.05,42.43,42.79,42.43,68.29s-11.21,46.7-26.37,58.37c-9.89,7.78-26.37,9.72-45.49,9.72-4.26,0-7.99-.07-11.32-.21-7-.28-12.13-.85-15.7-1.73-1.98-.65-3.95-1.29-3.95-5.84v-9.06l-.7-35.68-73.24,100.88-1.21,32.07c0,50.59,0,94.05-2.64,117.39-1.98,16.21-5.27,26.59-17.14,29.18-5.27,1.3-11.87,1.94-20.44,1.94-7.25,0-9.23,3.24-9.23,5.84,0,3.89,3.96,5.84,11.21,5.84,11.87,0,26.37-.64,40.22-1.29,13.84,0,26.37-.65,32.96-.65,9.23,0,29.66,.65,49.45,1.3,19.77,1.29,39.55,1.94,46.14,1.94Zm-55.08-203.89c0-3.47,1.41-4.16,3.52-4.16h26.79c23.97,0,40.88,6.24,53.58,15.26,46.52,31.21,58.5,77.67,58.5,104.72,0,65.19-42.99,83.22-76.13,83.22-14.1,0-28.19-.69-44.41-6.94-19.74-7.63-21.85-19.42-21.85-58.25v-133.84Z"/>
    <path d="M103.76,499.03c0-211.48,174.88-383.53,389.84-383.53,88.05,0,169.35,28.9,234.68,77.52l31.07-45.55c-74.24-54.46-166.23-86.75-265.75-86.75-245.67,0-445.53,196.63-445.53,438.32,0,138.3,65.49,261.79,167.51,342.18l30.81-45.89c-87.02-70.4-142.63-177.06-142.63-296.29Z"/>
    <path d="M758.48,214.67c-.52-.42-1.38-1.21-1.9-1.75-.46-.48-.81-.61-1.17-.27-.49,.45-.27,.92,.48,1.7,2.97,3.12,6.3,6.24,6.93,6.9,1.77,1.86,4.05,4.6,5.88,6.52,.63,.66,1.1,.9,1.58,.45,.36-.34,.32-.63-.37-1.35l-.86-.9c-1.77-1.86-1.5-3.13-.4-4.14,.73-.68,2.48-1.73,4.57-2.53l11.8-4.81c.48-.22,.72-.21,1,.09l12.75,13.36c.29,.3,.34,.59,.15,.99l-8.33,16.72c-.44,.98-1.39,1.06-1.91,.76-.63-.54-.98-.67-1.35-.33-.43,.39,.26,1.11,1.23,2.25,4.45,4.91,8.63,9.28,10.69,11.43,2.12,2.22,2.75,2.64,3.24,2.19,.43-.39,.2-.75-.26-1.23-.69-.72-1.48-1.67-2.16-2.74-.89-1.54-1.7-4.06,1.6-11.4,5.6-12.39,21.29-44.93,23.26-49.46,.83-1.89,1.03-2.76,.52-3.3-.57-.6-1.58-.34-4.04,.57l-52.59,20.3c-4.19,1.62-7.34,2.39-10.34-.03Zm31.93-2.33l20.24-8.33c.3-.16,.72-.32,.89-.14,.17,.18-.07,.52-.26,.81l-9.89,19.28c-.13,.23-.37,.34-.65,.04l-10.52-11.02c-.23-.24-.1-.47,.2-.63Z"/>
    <path d="M851.44,236.47c-2.1,1.64-4.01,2.96-14.42,10.1l-12.05,8.28c-6.3,4.33-11.71,8.04-14.83,9.68-2.18,1.09-3.92,1.79-5.15,.63-.57-.51-1.28-1.23-2-2.24-.57-.81-.97-.94-1.31-.7-.48,.33-.35,.94,.27,1.82,.96,1.35,2.34,3.01,3.43,4.56,1.22,1.57,2.27,3.05,2.79,3.79,.72,1.01,2.08,3.08,3.38,5.2,1.32,2,2.57,4.05,3.14,4.86,8.8,12.4,20.36,12.77,27.69,7.74,8.01-5.5,8.1-15.58,6.1-22.42,5.64,1.64,11.24,2.5,16.86-1.36,3.63-2.49,8.75-9.21,.09-21.41-1.62-2.29-3.69-4.78-6.04-8.08-.95-1.35-3.76-5.73-6.3-9.31-.72-1.01-1.19-1.39-1.67-1.06-.48,.33-.33,.83,.2,1.57,.67,.94,1.41,2.14,1.66,2.77,1.1,2.55,.38,3.84-1.85,5.58Zm-18.02,47.54c-7.12,4.89-12.4,.9-14.55-2.13-1.1-1.55-2.13-3.15-2.67-5.48-.64-2.77,.38-3.77,4.9-6.87l16.23-11.15c.34-.24,.58-.2,.77,.07,.72,1.01,1.19,1.68,1.99,2.94,1.73,2.72,2.35,4.6,2.32,6.72,0,7.61-4.75,12.98-8.99,15.89Zm25.08-40.17c.75-.52,1.12-.57,1.6-.19,.61,.58,1.04,1.19,1.71,2.13,4.11,5.79-.05,12.56-4.64,15.71-3.36,2.3-6.54,2.99-9.22,2.22-1.84-.44-3.17-1.73-4.75-3.96-1.1-1.55-1.75-2.61-2.04-3.31-.12-.32-.13-.61,.42-.99l16.92-11.62Z"/>
    <path d="M845.14,335.87c9.12,18.85,28.51,24.32,45.78,16.23,17.27-8.09,22.64-24.71,13.7-43.19-10.77-22.26-31.49-22.84-44.39-16.8-13.35,6.25-25.4,22.45-15.09,43.75Zm54.82-27.41c5.89,12.17,.04,26.65-16.86,34.56-21.8,10.21-30.18-.61-32.69-5.81-6.89-14.25,1.42-28.61,17.11-35.95,18.78-8.8,28.31-1.34,32.44,7.2Z"/>
    <path d="M890.34,370.82c-11.71,3.05-16.87,7.63-19.49,12.65-3.77,7.19-1.95,14.88-.82,19.09,1.39,5.16,3.82,10.65,10.27,15,7.61,5.15,17.37,3.54,26.33,1.2l8.64-2.26c12.27-3.2,14.53-3.79,17.16-4.31,2.87-.58,4.41-.3,5.39,1.74,.42,.91,.63,1.37,.86,2.24,.26,.95,.55,1.39,1.11,1.24,.57-.15,.58-.75,.28-1.86-.84-3.11-2.43-8.05-2.68-9-.02-.08-1.13-5.14-2.22-9.19-.3-1.1-.61-1.62-1.17-1.47-.57,.15-.6,.67-.36,1.54,.24,.87,.52,2.25,.53,2.92,.14,2.77-.98,3.74-3.68,4.62-2.54,.83-4.8,1.42-17.07,4.63l-10.09,2.63c-8.31,2.17-15.64,3.83-21.26,.62-4.08-2.33-6.37-6.33-7.31-9.82-.73-2.7-1.39-6.44,.63-10.79,2.18-4.74,6.48-8.32,18.19-11.38l11.3-2.95c12.27-3.2,14.53-3.79,17.16-4.31,2.87-.58,4.41-.3,5.39,1.74,.42,.91,.63,1.37,.86,2.24,.21,.79,.5,1.23,1.07,1.08s.58-.75,.26-1.94c-.77-2.86-2.36-7.8-2.88-9.71-.64-2.38-1.75-7.45-2.89-11.66-.32-1.19-.63-1.71-1.2-1.56-.57,.15-.6,.67-.36,1.54,.3,1.11,.58,2.48,.59,3.16,.14,2.77-.98,3.74-3.68,4.62-2.54,.83-4.8,1.42-17.07,4.63l-11.79,3.08Z"/>
    <path d="M947.46,503.98c-.1-2.38,.05-5.02-.07-7.73-.04-.99-.22-1.39-.81-1.37-.5,.02-.64,.77-.78,1.51-.27,1.41-1.18,1.77-2.02,1.81-1.08,.04-2.52-.23-4.39-.98-2.63-1.05-21.41-10.66-23.45-11.41,2.28-1.41,21.92-13.69,24.38-14.94,1.14-.62,2.13-1.07,2.8-1.1,.67-.03,1.35,.36,1.55,1.09,.38,1.22,.49,1.79,.99,1.77,.5-.02,.73-.44,.7-1.26-.15-3.69-.54-7.05-.61-8.77-.11-2.71-.11-8.88-.17-10.35-.04-.99-.32-1.55-.82-1.53-.58,.02-.73,.6-.7,1.26,.04,.98-.4,2.4-.94,3.49-.85,1.6-2.86,3.73-5.86,5.91-4.22,3.04-22.13,14.77-23.44,15.4-2.37,1.16-4.18,2.06-8.68,2.23l-6.84,.27c-1.34,.05-4.84,.19-8.35,.08-2.43-.07-4.29-.74-4.69-2.36-.2-.73-.41-1.71-.45-2.86-.04-.9-.3-1.3-.72-1.29-.67,.03-.81,.69-.76,1.84,.13,3.04,.58,8.2,.67,10.26,.09,2.22,.05,7.4,.26,12.57,.04,1.06,.32,1.71,.91,1.69,.42-.02,.65-.44,.61-1.34-.05-1.15,.05-2.96,.17-4.12,.23-2.48,2.04-3.29,4.45-3.55,3.49-.39,7-.52,8.33-.58l6.84-.27c2.75-.11,5.34-.21,8.39,.9,3.65,1.33,23.73,12.05,27.18,14.63,2.33,1.72,3.36,2.58,4.27,4.27,.72,1.21,1.11,2.75,1.15,3.57,.04,.9,.31,1.55,.9,1.53,.5-.02,.64-.6,.61-1.5-.06-1.55-.54-6.96-.61-8.77Z"/>
    <path d="M943.91,540.2l-50.23-25.44c-4-2.03-6.68-3.85-6.81-7.66-.02-.66,0-1.82,.08-2.55,.06-.66-.07-1-.57-1.04-.67-.06-.88,.41-.98,1.48-.41,4.26-.6,8.78-.69,9.68-.25,2.54-.84,6.03-1.09,8.65-.09,.9,.03,1.41,.7,1.47,.5,.05,.69-.18,.79-1.17l.12-1.23c.24-2.54,1.4-3.17,2.89-3.03,1,.09,2.96,.69,4.95,1.7l11.46,5.54c.48,.21,.63,.39,.59,.8l-1.77,18.24c-.04,.41-.23,.64-.66,.76l-18.26,4.89c-1.04,.31-1.73-.33-1.84-.92,0-.83-.14-1.17-.64-1.22-.58-.05-.68,.93-.91,2.39-.8,6.53-1.38,12.5-1.67,15.45-.08,.83-.13,1.48-.15,2,.15-.08,.31-.12,.5-.07,.31,.08,.56,.22,.92,.54,.11-.91,.3-1.97,.62-3.03,.58-1.68,1.98-3.94,9.76-6.35,13.15-4.05,48.34-13.95,53.11-15.48,1.99-.64,2.79-1.06,2.86-1.8,.08-.82-.79-1.39-3.1-2.6Zm-14.53-.71l-21.25,5.43c-.26,.06-.5-.05-.46-.45l1.46-15.05c.03-.33,.29-.39,.61-.27l19.73,9.45c.32,.11,.72,.31,.7,.56-.02,.25-.45,.29-.79,.34Z"/>
    <path d="M879.24,568.98c-.29,.15-.5,.51-.65,1.09-4.04,16.12-7.79,29.43-11.13,42.75-.36,1.44,.15,2.15,1.51,2.91,1.89,1.05,6.9,3.36,9.5,3.99,1.94,.47,2.55,.45,2.71-.19,.12-.48-.33-.76-1.1-1.11-1.08-.52-2.42-1.35-3.54-2.38-2.11-1.86-3.36-5.47-1.32-13.61l4.91-19.63c14.62,15.47,30.16,32.1,45.58,47.52,.49,.46,.89,.89,1.38,1.01,.41,.1,.79-.4,.99-1.2l6.09-24.34c.82-3.27,1.69-7.12,3.92-14.63,.58-1.97,1.19-2.34,1.37-3.06,.12-.48-.21-.9-1.3-1.33-2.33-.99-9.41-3.97-11.28-4.42-.97-.24-1.4-.25-1.54,.3-.12,.48,.13,.88,1.22,1.31,1.81,.69,4.45,2.85,5.25,5.84,.82,2.91-.16,7.84-1.17,11.91l-3.92,15.64c-14.44-14.84-29.81-31.09-44.84-46.66-.55-.59-.92-.98-1.21-1.24-.36-.33-.61-.47-.92-.54-.19-.05-.36,0-.5,.07Z"/>
    <path d="M921.73,646.47c-.63-.23-.96,.17-1.26,.94-.35,.92-.82,1.89-1.38,2.65-1.04,1.54-2.66,1.82-5.38,.98-2.56-.78-4.75-1.59-16.61-6.02l-13.75-5.13c-7.57-2.83-13.74-5.13-16.88-6.73-2.18-1.08-3.33-2.03-3.05-3.69,.11-.75,.31-1.73,.75-2.88,.36-.92,.24-1.32-.15-1.46-.55-.2-.99,.25-1.37,1.25-1.19,3.07-2.82,8-3.5,9.77-.8,2.08-2.9,6.83-4.86,11.9-.32,.84-.33,1.54,.22,1.75,.39,.14,.77-.15,1.1-1,.44-1.15,1.25-2.78,1.82-3.8,1.2-2.19,2.81-2.2,5.01-1.65,3.48,.95,9.65,3.25,17.22,6.08l13.74,5.13c11.87,4.43,14.06,5.25,16.5,6.33,2.67,1.17,3.76,2.28,3.36,4.5-.2,.98-.36,1.62-.66,2.39-.3,.77-.32,1.29,.31,1.52,.47,.17,.86-.38,1.25-1.38,1.12-2.92,2.64-7.54,3.38-9.46,.86-2.23,2.96-6.98,4.08-9.9,.47-1.23,.55-1.9,.09-2.08Z"/>
    <path d="M910.62,677.01c-.52-.26-.94,.17-1.24,.75-.46,.87-1.56,1.89-2.58,2.57-1.55,.97-4.36,1.85-8.07,2.27-5.2,.58-26.67,2.03-28.13,1.93-2.65-.15-4.67-.25-8.67-2.3l-6.08-3.11c-1.19-.6-4.3-2.2-7.3-4-2.07-1.24-3.36-2.73-2.89-4.34,.2-.73,.51-1.68,1.05-2.7,.42-.8,.39-1.28,.02-1.47-.59-.3-1.05,.2-1.59,1.23-1.42,2.7-3.63,7.41-4.59,9.24-1.04,1.97-3.69,6.45-6.11,11.05-.5,.94-.59,1.64-.07,1.9,.37,.19,.79-.06,1.21-.86,.54-1.02,1.54-2.55,2.22-3.5,1.45-2.04,3.43-1.86,5.66-.91,3.23,1.37,6.34,2.96,7.53,3.57l6.08,3.11c2.45,1.25,4.75,2.42,6.84,4.88,2.5,2.94,14.53,22.05,16.23,25.98,1.16,2.63,1.62,3.88,1.56,5.79,.01,1.4-.42,2.93-.8,3.66-.42,.8-.51,1.5,.01,1.77,.44,.23,.86-.21,1.29-1.01,.73-1.37,3.05-6.3,3.89-7.91,1.12-2.12,2.57-4.34,3.84-6.74,.46-.88,.51-1.32-.01-1.59-.44-.23-.94,.35-1.43,.93-.95,1.09-1.92,.97-2.66,.59-.97-.49-2.07-1.43-3.32-2.99-1.76-2.19-13.22-19.72-14.61-21.36,2.69-.11,25.95-1.19,28.71-1.08,1.31,.02,2.39,.11,2.98,.41,.6,.3,1,.97,.8,1.7-.28,1.24-.48,1.79-.03,2.02,.44,.23,.86-.02,1.24-.75,1.73-3.28,3.09-6.39,3.9-7.92,1.27-2.41,4.38-7.77,5.07-9.08,.46-.87,.51-1.5,.06-1.73Z"/>
    <path d="M876.24,740.81c-.47-.35-.9-.05-1.45,.67-.7,.92-1.62,1.99-2.16,2.41-2.13,1.82-3.59,1.56-5.97,0-2.24-1.45-4.11-2.83-14.25-10.34l-11.75-8.7c-6.14-4.55-11.41-8.45-13.97-10.85-1.73-1.7-2.95-3.11-2.22-4.62,.32-.69,.79-1.58,1.54-2.56,.6-.79,.6-1.2,.27-1.44-.47-.35-1.02-.03-1.67,.82-1,1.31-2.18,3.12-3.33,4.63-1.14,1.62-2.24,3.07-2.8,3.79-1.26,1.64-3.21,3.79-5.32,6.14-2.11,2.35-4.37,4.89-6.18,7.26-9.29,12.15-9.78,22.49-8.95,27.83,.99,6.49,4.74,14.72,13.15,20.94,7.94,5.88,15.84,6.89,21.83,6.18,13.08-1.52,21.47-12.49,27.75-20.7,3.01-3.94,5.98-8.22,7.54-10.26,1.41-1.84,4.77-5.83,7.43-9.31,.75-.99,.97-1.55,.5-1.89Zm-15.01,13.47c-.14,.72-1.79,3.3-2.8,4.61-3.92,5.12-10.44,12.01-20.94,13.71-4.89,.8-13.03,.23-21.51-6.05-6.88-5.09-11.95-10.9-12.4-17.82-.46-6.51,1.62-11.96,6.74-18.66,3.97-5.19,7.33-6.71,9.25-6.63,1.14,.02,3.91,1.86,5.63,3.03,1.32,.87,6.51,4.61,13.59,9.85l8.41,6.23c5.28,3.9,11.08,8.2,13.3,9.95,.73,.54,.92,.99,.73,1.78Z"/>
    <path d="M768.59,811.26l-4.88,.21c-8.8,.38-12.25-1.69-14.91-4.75-2.88-3.31-3.4-9.47,2.31-14.28,3.93-3.31,9.15-4.78,14.56-1.34,1.24,.79,2.64,1.89,3.34,2.7,.44,.5,.99,1.01,1.56,.53,.51-.43,.1-1.27-.65-2.26-.8-1.05-3.81-5.01-6.8-8.44-1.2-1.38-1.66-1.52-3.05-1.11-3.76,1.11-6.99,3.08-10.67,6.18-3.36,2.84-6.43,6.39-7.86,11.06-2.02,6.78,.34,12.27,3.49,15.89,5.16,5.93,11.64,7.94,24.26,7.15l2.92-.18c8.69-.51,12.05,.45,14.55,3.32,3.26,3.74,2.74,8.83-1.95,12.79-4.13,3.48-7.59,3.15-9.58,2.77-2.75-.5-4.75-2.17-5.24-2.73-.65-.75-1.17-.96-1.61-.59-.51,.43-.26,1.09,.93,2.46,4.24,4.87,5.56,6.89,6.27,7.7,.38,.44,.86,.36,1.54,0,2.03-.96,5.24-2.58,9.36-6.05,8.82-7.43,10.36-17.28,4.38-24.14-4.4-5.06-10.62-7.39-22.27-6.88Z"/>
    <path d="M698.63,825.52c-18.06,10.97-21.49,30.54-11.43,46.55,10.05,16.01,27.43,19.46,45.13,8.71,21.32-12.96,19.66-33.29,12.15-45.25-7.77-12.38-25.45-22.4-45.85-10.01Zm33.65,50.65c-11.66,7.08-26.93,2.93-36.76-12.73-12.69-20.21-2.66-29.58,2.31-32.61,13.65-8.29,29.07-1.72,38.2,12.83,10.93,17.41,4.43,27.55-3.75,32.51Z"/>
    <path d="M685.29,903.16c-1,.41-1.96,.72-2.64,.82-2.77,.52-3.9-.44-5.15-2.96-1.19-2.36-2.09-4.49-6.99-16.01l-5.68-13.34c-2.97-6.98-5.51-12.97-6.48-16.31-.63-2.32-.95-4.15,.46-5.09,.63-.44,1.49-.97,2.65-1.44,.92-.38,1.13-.74,.97-1.12-.23-.53-.86-.54-1.86-.12-1.54,.63-3.48,1.61-5.25,2.34-1.82,.84-3.51,1.54-4.36,1.88-3.16,1.3-5.97,2.37-9.5,3.64-3.5,1.35-7.57,2.85-13.12,5.14-4.01,1.65-4.23,2.19-3.99,4.05,.32,2.45,2.2,8.36,2.55,9.19,.39,.91,.63,1.26,1.16,1.04,.62-.25,.58-.77,.36-1.48-.46-1.51-.44-4.01,.07-5.37,1.06-2.84,4.03-4.15,8.11-5.83,6.01-2.47,8.24-2.77,10.03-2.17,2.2,.7,4.42,5.93,8.55,15.64l5.68,13.35c4.9,11.53,5.8,13.65,6.68,16.14,.97,2.72,.91,4.26-1.01,5.5-.86,.53-2.06,1.12-2.91,1.46-.92,.38-1.32,.72-1.1,1.25,.23,.53,.83,.46,1.91,.02,3-1.25,8.54-3.8,10.39-4.56,2.08-.86,7.03-2.63,10.66-4.12,1.16-.46,1.63-.84,1.41-1.37-.23-.53-.75-.49-1.6-.14Z"/>
    <path d="M637.51,922.73c-1.13,.28-2.53,.55-3.22,.55-2.81,.11-3.79-1-4.66-3.67-.82-2.51-1.4-4.74-4.53-16.84l-3.01-11.62c-2.99-11.55-7.59-16.67-12.67-19.3-7.27-3.77-15.1-2.07-19.39-.99-5.26,1.32-10.86,3.65-15.35,9.95-5.32,7.44-3.77,17.05-1.49,25.89l2.21,8.52c3.13,12.11,3.71,14.33,4.21,16.92,.56,2.83,.26,4.34-1.82,5.29-.93,.4-1.4,.6-2.29,.83-.97,.24-1.41,.52-1.27,1.08,.14,.56,.75,.58,1.88,.29,3.16-.78,8.19-2.29,9.16-2.54,.08-.02,5.24-1.06,9.37-2.09,1.13-.3,1.66-.6,1.51-1.16-.14-.56-.67-.6-1.56-.37-.89,.22-2.29,.49-2.97,.49-2.82,.11-3.79-1-4.66-3.67-.82-2.51-1.4-4.74-4.53-16.84l-2.58-9.95c-2.12-8.2-3.73-15.43-.42-20.92,2.41-4,6.5-6.21,10.06-7.1,2.75-.69,6.56-1.3,10.96,.73,4.79,2.19,8.39,6.46,11.38,18.01l2.89,11.15c3.13,12.11,3.71,14.33,4.21,16.92,.56,2.83,.26,4.34-1.82,5.29-.93,.4-1.4,.6-2.29,.83-.81,.2-1.25,.48-1.11,1.04,.14,.56,.75,.58,1.97,.27,2.92-.71,7.95-2.23,9.9-2.72,2.43-.61,7.59-1.65,11.88-2.72,1.22-.32,1.74-.62,1.6-1.18-.14-.56-.67-.59-1.56-.37Z"/>
    <path d="M560.97,930.58c-.5,.04-.72,.39-.83,1.06-.11,.67-.44,1.69-1.16,2.99-1.09,1.91-3.05,2.49-7.86,3.07l-12.37,1.39-2.98-33.57c-.67-7.53-1.24-14-1.13-17.48,.04-2.39,.38-4.24,2.01-4.71,.73-.23,1.72-.48,2.97-.58,1-.09,1.31-.36,1.27-.77-.05-.57-.66-.77-1.74-.68-3.33,.29-8.55,.98-10.47,1.15-2.33,.2-7.6,.4-13.09,.87-.92,.08-1.56,.38-1.51,.96,.04,.41,.47,.62,1.39,.54,1.25-.11,3.09-.1,4.27-.04,2.53,.11,3.18,1.87,3.64,4.14,.73,3.49,1.3,9.95,1.97,17.49l2.98,33.57-10.51,.66c-7.42,.47-9.87-1.63-10.23-3.74l-.16-.89c-.19-1.22-.4-1.62-1.06-1.56-.5,.04-.62,.55-.63,1.38,.19,2.13,.44,7.8,.59,9.52,.11,1.23,.24,1.71,.82,1.66,.33-.03,.98-.25,2.21-.6,1.23-.27,3.04-.67,5.71-.9l32.96-2.83c2.75-.24,5.92-.35,8.36-.3,2.1-.02,3,.73,3.67,.67,.5-.04,.71-.56,.86-1.64,.11-.67,1.03-8.26,.91-9.57-.08-.9-.28-1.29-.87-1.25Z"/>
    <path d="M492.82,883.79c-3.34-.1-8.61-.02-10.53-.07-2.25-.07-7.51-.48-13.02-.64-.92-.03-1.59,.2-1.61,.77-.01,.41,.4,.67,1.31,.7,1.25,.04,3.08,.26,4.25,.46,2.49,.4,3.03,1.9,3.21,4.13,.22,3.54,.02,10.03-.23,18l-.46,14.46c-.39,12.49-.47,14.79-.72,17.41-.26,2.87-.97,4.25-3.24,4.59-1.01,.13-1.68,.2-2.51,.17-.83-.03-1.34,.12-1.36,.78-.01,.49,.65,.68,1.73,.71,3.17,.09,8.11,0,10.19,.06,2.42,.07,7.67,.48,10.85,.58,1.34,.04,2.01-.1,2.02-.59,.02-.66-.47-.83-1.31-.86-1-.03-2.09-.14-3-.42-1.82-.47-2.62-1.89-2.69-4.69-.08-2.63-.01-4.93,.38-17.42l.46-14.46c.25-7.97,.46-14.45,.98-17.89,.32-2.38,.87-3.76,2.55-4.03,.76-.14,1.76-.27,3.02-.24,1,.03,1.34-.21,1.36-.62,.02-.58-.56-.84-1.64-.87Z"/>
    <path d="M428.41,877.01c-20.9-3.54-36.64,8.88-39.89,27.42-3.25,18.54,7.45,32.45,27.94,35.92,24.69,4.19,37.13-12.13,39.55-25.97,2.51-14.33-3.98-33.36-27.61-37.37Zm15.81,37.95c-3.53,20.16-15.22,23.51-24.69,21.91-13.5-2.29-22.14-15.35-18.96-33.48,4.1-23.4,17.92-23.89,23.68-22.91,15.8,2.68,22.93,17.65,19.97,34.49Z"/>
    <path d="M388.91,871.94c.27-.69-.41-1.03-1.42-1.41-4.06-1.52-7.82-2.66-8.52-2.92-1.48-.56-4.52-1.96-9.59-3.86-1.09-.41-1.85-.52-2.09,.1-.18,.46,.23,.79,1.09,1.11,1.25,.47,2.7,1.1,3.85,2.05,1.35,1.12,1.59,3.5-.57,9.55l-11.61,32.57-.24-.09c-.84-1.99-5.79-14.83-11.09-26.3-5.06-10.95-11.16-24.75-14.29-31.2-.53-1.17-1.14-2.36-2-2.68-.7-.26-1.28,.31-1.93,2l-19.6,48.13c-1.74,4.27-2.99,5.65-5.41,5.44-1.03-.12-1.65-.35-2.43-.64-.94-.35-1.49-.3-1.67,.16-.24,.62,.51,.98,1.53,1.36,3.82,1.43,6.88,2.31,7.74,2.63,1.64,.61,5.3,2.25,9.35,3.77,1.17,.44,2.06,.68,2.3,.07,.18-.46-.04-.81-.98-1.16-1.09-.41-2.97-1.11-3.96-2.01-1.58-1.47-1.71-3.19,.02-7.9l12.56-34.77,.39,.14c.85,1.73,7.11,16.73,10.4,23.94,7.09,15.4,14.11,32.36,14.66,33.71,.79,1.88,1.11,3.14,1.97,3.46,.78,.29,1.43-.7,2.02-2.23l18.28-45.2c2.66-6.65,3.84-8.76,6.1-8.62,1.21,.1,2.65,.55,3.66,.93,.78,.29,1.31,.32,1.49-.14Z"/>
    <path d="M306.67,849.15c-.35,1.42-.93,3.08-1.47,4-.33,.57-.64,1.25,.01,1.62,.58,.33,1.25-.33,1.95-1.36,.74-1.1,3.53-5.21,5.82-9.13,.92-1.57,.91-2.05,.04-3.2-2.32-3.12-5.29-5.46-9.49-7.84-3.84-2.17-8.27-3.83-13.22-3.6-7.17,.4-11.64,4.41-14.06,8.54-3.96,6.77-3.72,13.45,1.25,24.89l1.15,2.65c3.38,7.89,3.59,11.33,1.67,14.6-2.5,4.28-7.55,5.49-12.91,2.46-4.71-2.67-5.56-5.99-5.85-7.96-.44-2.71,.49-5.13,.87-5.77,.5-.85,.53-1.4,.03-1.69-.58-.33-1.13,.12-2.05,1.69-3.25,5.56-4.75,7.46-5.29,8.38-.29,.5-.05,.92,.51,1.43,1.59,1.57,4.21,4,8.92,6.66,10.06,5.7,20.02,3.85,24.6-3.99,3.38-5.77,3.54-12.31-.84-22.95l-1.83-4.45c-3.3-8.03-2.47-11.93-.43-15.42,2.21-3.77,7.94-6.31,14.45-2.62,4.49,2.54,7.64,6.89,6.14,13.06Z"/>
  </g>
</svg>